<?xml version="1.0" encoding="utf-8"?>
<!-- Generator: Adobe Illustrator 19.2.0, SVG Export Plug-In . SVG Version: 6.00 Build 0)  -->
<svg version="1.1" id="circuit" xmlns="http://www.w3.org/2000/svg" xmlns:xlink="http://www.w3.org/1999/xlink" x="0px" y="0px"
	 viewBox="0 0 224 196" enable-background="new 0 0 224 196" xml:space="preserve">
<g>
	<path fill="none" d="M24,96c-8.8224,0-16,7.1776-16,16s7.1776,16,16,16s16-7.1776,16-16S32.8224,96,24,96z"/>
	<path fill="none" d="M52,32c-8.8224,0-16,7.1776-16,16s7.1776,16,16,16s16-7.1776,16-16S60.8224,32,52,32z"/>
	<path fill="none" d="M200,116c-8.8224,0-16,7.1776-16,16s7.1776,16,16,16s16-7.1776,16-16S208.8224,116,200,116z"/>
	<path fill="none" d="M200,92c8.8224,0,16-7.1776,16-16s-7.1776-16-16-16s-16,7.1776-16,16S191.1776,92,200,92z"/>
	<path d="M200,108c-11.8688,0-21.7252,8.668-23.6388,20H160c-13.2344,0-24,10.7596-24,23.9864V196h8v-44.0136
		C144,143.172,151.1776,136,160,136h16.3612c1.9136,11.332,11.77,20,23.6388,20c13.2344,0,24-10.7656,24-24S213.2344,108,200,108z
		 M200,148c-8.8224,0-16-7.1776-16-16s7.1776-16,16-16s16,7.1776,16,16S208.8224,148,200,148z"/>
	<path d="M92,48H76c0-13.2344-10.7656-24-24-24S28,34.7656,28,48s10.7656,24,24,24c10.426,0,19.2948-6.6932,22.6-16H92
		c8.8224,0,16,7.1876,16,16.0236V196h8V72.0236C116,58.7772,105.2344,48,92,48z M52,64c-8.8224,0-16-7.1776-16-16s7.1776-16,16-16
		s16,7.1776,16,16S60.8224,64,52,64z"/>
	<path d="M64,108H47.6388C45.7252,96.668,35.8688,88,24,88C10.7656,88,0,98.7656,0,112s10.7656,24,24,24
		c11.8688,0,21.7252-8.668,23.6388-20H64c8.8224,0,16,7.1836,16,16.0136V196h8v-63.9864C88,118.7736,77.2344,108,64,108z M24,128
		c-8.8224,0-16-7.1776-16-16s7.1776-16,16-16s16,7.1776,16,16S32.8224,128,24,128z"/>
	<path d="M163.4608,80h12.9004c1.9136,11.332,11.77,20,23.6388,20c13.2344,0,24-10.7656,24-24s-10.7656-24-24-24
		c-11.8688,0-21.7252,8.668-23.6388,20h-12.9004c-6.2968,0-11.4196-5.1252-11.4196-11.4256V0h-8v60.5744
		C144.0412,71.2852,152.752,80,163.4608,80z M200,60c8.8224,0,16,7.1776,16,16s-7.1776,16-16,16s-16-7.1776-16-16
		S191.1776,60,200,60z"/>
</g>
</svg>
