<?xml version="1.0" encoding="UTF-8" standalone="no"?>
<!-- Generator: Adobe Illustrator 23.0.6, SVG Export Plug-In . SVG Version: 6.00 Build 0)  -->

<svg
   xmlns:dc="http://purl.org/dc/elements/1.1/"
   xmlns:cc="http://creativecommons.org/ns#"
   xmlns:rdf="http://www.w3.org/1999/02/22-rdf-syntax-ns#"
   xmlns:svg="http://www.w3.org/2000/svg"
   xmlns="http://www.w3.org/2000/svg"
   xmlns:xlink="http://www.w3.org/1999/xlink"
   xmlns:sodipodi="http://sodipodi.sourceforge.net/DTD/sodipodi-0.dtd"
   xmlns:inkscape="http://www.inkscape.org/namespaces/inkscape"
   version="1.1"
   id="Capa_1"
   x="0px"
   y="0px"
   viewBox="0 0 434.80006 434.79997"
   xml:space="preserve"
   sodipodi:docname="desktop.svg"
   width="434.80008"
   height="434.79999"
   inkscape:version="0.92.3 (2405546, 2018-03-11)"><metadata
   id="metadata344"><rdf:RDF><cc:Work
       rdf:about=""><dc:format>image/svg+xml</dc:format><dc:type
         rdf:resource="http://purl.org/dc/dcmitype/StillImage" /><dc:title></dc:title></cc:Work></rdf:RDF></metadata><defs
   id="defs342" /><sodipodi:namedview
   pagecolor="#ffffff"
   bordercolor="#666666"
   borderopacity="1"
   objecttolerance="10"
   gridtolerance="10"
   guidetolerance="10"
   inkscape:pageopacity="0"
   inkscape:pageshadow="2"
   inkscape:window-width="1853"
   inkscape:window-height="1025"
   id="namedview340"
   showgrid="false"
   fit-margin-top="1"
   fit-margin-right="1"
   fit-margin-bottom="1"
   fit-margin-left="1"
   inkscape:zoom="0.41629915"
   inkscape:cx="217.35001"
   inkscape:cy="217.44999"
   inkscape:window-x="67"
   inkscape:window-y="27"
   inkscape:window-maximized="1"
   inkscape:current-layer="Capa_1" />
<style
   type="text/css"
   id="style2">
	.st0{opacity:0.85;fill:url(#SVGID_1_);enable-background:new    ;}
	.st1{clip-path:url(#SVGID_3_);}
	.st2{fill:#9E9E9E;}
	.st3{fill:#B83E08;}
	.st4{fill:#FFFFFF;}
	.st5{fill:#072055;}
	.st6{fill:#FFE610;}
	.st7{opacity:0.41;fill:#FFFFFF;enable-background:new    ;}
	.st8{fill:#F5A97B;}
	.st9{fill:#256284;}
	.st10{opacity:0.33;fill:#264575;enable-background:new    ;}
	.st11{fill:#F6E8E7;}
	.st12{fill:#242129;}
	.st13{opacity:0.22;fill:#E55429;enable-background:new    ;}
	.st14{fill:#FCFCFC;}
	.st15{opacity:0.85;fill:url(#SVGID_4_);enable-background:new    ;}
	.st16{clip-path:url(#SVGID_6_);}
	.st17{fill:#E6C80A;}
	.st18{fill:#1A1F33;}
	.st19{fill:#E6E7E8;}
	.st20{fill:#EE4E3B;}
	.st21{fill:#D0D2D3;}
	.st22{fill:#F7FCEF;}
	.st23{fill:#66787A;}
	.st24{opacity:0.85;fill:url(#SVGID_7_);enable-background:new    ;}
	.st25{clip-path:url(#SVGID_9_);}
	.st26{fill:#D8D0BC;}
	.st27{fill:#F7C429;}
	.st28{fill:#000003;}
	.st29{fill:#DB3333;}
	.st30{opacity:0.85;fill:url(#SVGID_10_);enable-background:new    ;}
	.st31{clip-path:url(#SVGID_12_);}
	.st32{fill:#BBBDBF;}
	.st33{fill:#0E0F2D;}
	.st34{fill:#A7DC94;}
	.st35{fill:#F4F4F4;}
	.st36{fill:#82BAC9;}
	.st37{fill:#F05A33;}
	.st38{fill:#2E3235;}
	.st39{opacity:0.85;fill:url(#SVGID_13_);enable-background:new    ;}
	.st40{fill:#D1D3D4;}
	.st41{clip-path:url(#SVGID_15_);}
	.st42{fill:#F1F2F2;}
	.st43{fill:#231F20;}
	.st44{clip-path:url(#SVGID_17_);}
	.st45{fill:#FFA38A;}
	.st46{fill:#EB876C;}
	.st47{fill:#FFC41D;}
	.st48{fill:#CC9D17;}
	.st49{fill:#FFE8E0;}
	.st50{clip-path:url(#SVGID_19_);}
	.st51{clip-path:url(#SVGID_21_);}
	.st52{fill:#099FAA;}
	.st53{fill:#939598;}
	.st54{fill:#4482CD;}
	.st55{opacity:0.85;fill:url(#SVGID_22_);enable-background:new    ;}
	.st56{clip-path:url(#SVGID_24_);}
	.st57{fill:#2A2A2A;}
	.st58{fill:#808285;}
	.st59{fill:#7CA39C;}
	.st60{fill:#8CBEB2;}
	.st61{fill:#C77966;}
	.st62{fill:#5C4B51;}
	.st63{fill:#F2EBBF;}
	.st64{opacity:5.000000e-02;fill:#231F20;enable-background:new    ;}
	.st65{fill:#F3B562;}
	.st66{fill:#F06060;}
	.st67{clip-path:url(#SVGID_26_);}
	.st68{fill:#7E827A;}
	.st69{fill:#F0D0B4;}
	.st70{fill:#DD3163;}
	.st71{fill:#262123;}
	.st72{opacity:0.85;fill:url(#SVGID_27_);enable-background:new    ;}
	.st73{clip-path:url(#SVGID_29_);}
	.st74{fill:#FBB03F;}
	.st75{fill:#2D3C50;}
	.st76{fill:#FCBA4F;}
	.st77{opacity:0.15;fill:#999999;enable-background:new    ;}
	.st78{fill:#415064;}
	.st79{opacity:0.15;fill:#FFFFFF;enable-background:new    ;}
	.st80{fill:#EBF5F6;}
	.st81{fill:#B3B9C1;}
	.st82{fill:#F28257;}
	.st83{fill:#FF825F;}
	.st84{opacity:0.3;fill:#FFFFFF;enable-background:new    ;}
	.st85{opacity:0.85;fill:url(#SVGID_30_);enable-background:new    ;}
	.st86{clip-path:url(#SVGID_32_);fill:#FCFCFC;}
	.st87{clip-path:url(#SVGID_34_);fill:#FCFCFC;}
	.st88{clip-path:url(#SVGID_36_);}
	.st89{opacity:0.15;fill:#333333;enable-background:new    ;}
	.st90{fill:#ECF0F1;}
	.st91{fill:#1ABC9C;}
	.st92{fill:#F1C40F;}
	.st93{fill:#2980B9;}
	.st94{opacity:8.000000e-02;fill:#FFFFFF;enable-background:new    ;}
	.st95{fill:#A2B5BF;}
	.st96{fill:#F2E1AC;}
	.st97{fill:#BFBCA5;}
	.st98{opacity:0.1;fill:#231F20;enable-background:new    ;}
	.st99{fill:#ECC19C;}
	.st100{fill:#4F6871;}
	.st101{opacity:0.25;fill:#333333;enable-background:new    ;}
	.st102{opacity:0.25;fill:#231F20;enable-background:new    ;}
	.st103{opacity:0.85;fill:url(#SVGID_37_);enable-background:new    ;}
	.st104{fill:#C9302B;}
	.st105{opacity:0.1;fill:url(#);enable-background:new    ;}
	.st106{opacity:0.15;}
	.st107{fill:#1F1F1F;}
	.st108{fill:#262626;}
	.st109{opacity:0.1;fill:#FFFFFF;enable-background:new    ;}
	.st110{opacity:0.25;}
	.st111{fill:#292929;}
	.st112{fill:#D2CCCC;}
	.st113{opacity:0.15;fill:url(#SVGID_38_);enable-background:new    ;}
	.st114{fill:#C63636;}
	.st115{opacity:0.35;}
	.st116{opacity:0.15;fill:url(#SVGID_39_);enable-background:new    ;}
	.st117{clip-path:url(#SVGID_41_);}
	.st118{fill:#4B444C;}
	.st119{fill:#373238;}
</style>
<g
   id="g337"
   transform="translate(-66.1,-66.1)">
	<path
   class="st38"
   d="m 284.6,283.4 v 0 l 0.1,0.1 z"
   id="path4"
   inkscape:connector-curvature="0"
   style="fill:#2e3235" />
	<g
   id="g335">
		<g
   id="g333">
			<path
   class="st14"
   d="m 131.7,198 c 6.4,4.4 14.2,7.1 22.6,7.1 21.9,0 39.7,-17.8 39.7,-39.7 0,-21.9 -17.8,-39.7 -39.7,-39.7 -1.6,0 -3.2,0.1 -4.7,0.3 0.2,-1.5 0.3,-3.1 0.3,-4.7 0,-2.5 -0.3,-4.9 -0.7,-7.3 -35.8,28.4 -62.4,67.9 -74.6,113.3 5.4,2.8 11.5,4.3 18,4.3 19.8,-0.1 36.2,-14.6 39.1,-33.6 z"
   id="path6"
   inkscape:connector-curvature="0"
   style="fill:#fcfcfc" />
			
				<linearGradient
   id="SVGID_1_"
   gradientUnits="userSpaceOnUse"
   x1="283.4646"
   y1="-904.13538"
   x2="283.4646"
   y2="-1336.9354"
   gradientTransform="translate(66.1,1470.1)">
				<stop
   offset="0"
   style="stop-color:#6DAFDF"
   id="stop8" />
				<stop
   offset="0.8324"
   style="stop-color:#71B1DF"
   id="stop10" />
			</linearGradient>
			<path
   class="st0"
   d="M 283.5,67.1 C 164,67.1 67.1,164 67.1,283.5 c 0,26.3 4.7,51.5 13.3,74.8 30.5,82.7 109.9,141.6 203.1,141.6 93.2,0 172.7,-58.9 203.1,-141.6 8.6,-23.3 13.3,-48.5 13.3,-74.8 C 500,164 403.1,67.1 283.5,67.1 Z"
   id="path13"
   inkscape:connector-curvature="0"
   style="opacity:0.85;fill:url(#SVGID_1_);enable-background:new" />
			<g
   id="g131">
				<path
   class="st40"
   d="m 393.9,302.2 -232.7,-24 c -5.5,-0.6 -10.4,3.4 -11,8.9 l -8.7,84.2 c -0.6,5.5 3.4,10.4 8.9,11 l 232.7,24 c 5.5,0.6 10.4,-3.4 11,-8.9 l 8.7,-84.2 c 0.6,-5.5 -3.4,-10.4 -8.9,-11 z"
   id="path15"
   inkscape:connector-curvature="0"
   style="fill:#d1d3d4" />
				<path
   class="st4"
   d="m 394.3,298.5 -232.7,-24 c -5.5,-0.6 -10.4,3.4 -11,8.9 l -8.7,84.2 c -0.6,5.5 3.4,10.4 8.9,11 l 232.7,24 c 5.5,0.6 10.4,-3.4 11,-8.9 l 8.7,-84.2 c 0.6,-5.5 -3.4,-10.4 -8.9,-11 z"
   id="path17"
   inkscape:connector-curvature="0"
   style="fill:#ffffff" />
				<g
   id="g41">
					<path
   class="st19"
   d="m 174.8,322.1 -13,-1.3 c -1.3,-0.1 -2.5,0.8 -2.6,2.1 l -0.9,8.6 c -0.1,1.3 0.8,2.5 2.1,2.6 l 13,1.3 c 1.3,0.1 2.5,-0.8 2.6,-2.1 l 0.9,-8.6 c 0.1,-1.3 -0.8,-2.5 -2.1,-2.6 z"
   id="path19"
   inkscape:connector-curvature="0"
   style="fill:#e6e7e8" />
					<path
   class="st19"
   d="m 196.1,324.3 -13,-1.3 c -1.3,-0.1 -2.5,0.8 -2.6,2.1 l -0.9,8.6 c -0.1,1.3 0.8,2.5 2.1,2.6 l 13,1.3 c 1.3,0.1 2.5,-0.8 2.6,-2.1 l 0.9,-8.6 c 0.2,-1.3 -0.8,-2.5 -2.1,-2.6 z"
   id="path21"
   inkscape:connector-curvature="0"
   style="fill:#e6e7e8" />
					<path
   class="st19"
   d="m 217.5,326.5 -13,-1.3 c -1.3,-0.1 -2.5,0.8 -2.6,2.1 l -0.9,8.6 c -0.1,1.3 0.8,2.5 2.1,2.6 l 13,1.3 c 1.3,0.1 2.5,-0.8 2.6,-2.1 l 0.9,-8.6 c 0.1,-1.3 -0.8,-2.5 -2.1,-2.6 z"
   id="path23"
   inkscape:connector-curvature="0"
   style="fill:#e6e7e8" />
					<path
   class="st19"
   d="m 238.8,328.7 -13,-1.3 c -1.3,-0.1 -2.5,0.8 -2.6,2.1 l -0.9,8.6 c -0.1,1.3 0.8,2.5 2.1,2.6 l 13,1.3 c 1.3,0.1 2.5,-0.8 2.6,-2.1 l 0.9,-8.6 c 0.2,-1.3 -0.8,-2.5 -2.1,-2.6 z"
   id="path25"
   inkscape:connector-curvature="0"
   style="fill:#e6e7e8" />
					<path
   class="st19"
   d="m 260.2,330.9 -13,-1.3 c -1.3,-0.1 -2.5,0.8 -2.6,2.1 l -0.9,8.6 c -0.1,1.3 0.8,2.5 2.1,2.6 l 13,1.3 c 1.3,0.1 2.5,-0.8 2.6,-2.1 l 0.9,-8.6 c 0.1,-1.3 -0.8,-2.5 -2.1,-2.6 z"
   id="path27"
   inkscape:connector-curvature="0"
   style="fill:#e6e7e8" />
					<path
   class="st19"
   d="m 281.5,333.1 -13,-1.3 c -1.3,-0.1 -2.5,0.8 -2.6,2.1 l -0.9,8.6 c -0.1,1.3 0.8,2.5 2.1,2.6 l 13,1.3 c 1.3,0.1 2.5,-0.8 2.6,-2.1 l 0.9,-8.6 c 0.2,-1.3 -0.8,-2.5 -2.1,-2.6 z"
   id="path29"
   inkscape:connector-curvature="0"
   style="fill:#e6e7e8" />
					<path
   class="st19"
   d="m 302.9,335.3 -13,-1.3 c -1.3,-0.1 -2.5,0.8 -2.6,2.1 l -0.9,8.6 c -0.1,1.3 0.8,2.5 2.1,2.6 l 13,1.3 c 1.3,0.1 2.5,-0.8 2.6,-2.1 l 0.9,-8.6 c 0.1,-1.3 -0.8,-2.5 -2.1,-2.6 z"
   id="path31"
   inkscape:connector-curvature="0"
   style="fill:#e6e7e8" />
					<path
   class="st19"
   d="m 324.2,337.5 -13,-1.3 c -1.3,-0.1 -2.5,0.8 -2.6,2.1 l -0.9,8.6 c -0.1,1.3 0.8,2.5 2.1,2.6 l 13,1.3 c 1.3,0.1 2.5,-0.8 2.6,-2.1 l 0.9,-8.6 c 0.2,-1.3 -0.8,-2.5 -2.1,-2.6 z"
   id="path33"
   inkscape:connector-curvature="0"
   style="fill:#e6e7e8" />
					<path
   class="st19"
   d="m 345.6,339.7 -13,-1.3 c -1.3,-0.1 -2.5,0.8 -2.6,2.1 l -0.9,8.6 c -0.1,1.3 0.8,2.5 2.1,2.6 l 13,1.3 c 1.3,0.1 2.5,-0.8 2.6,-2.1 l 0.9,-8.6 c 0.1,-1.3 -0.8,-2.5 -2.1,-2.6 z"
   id="path35"
   inkscape:connector-curvature="0"
   style="fill:#e6e7e8" />
					<path
   class="st19"
   d="m 366.9,341.9 -13,-1.3 c -1.3,-0.1 -2.5,0.8 -2.6,2.1 l -0.9,8.6 c -0.1,1.3 0.8,2.5 2.1,2.6 l 13,1.3 c 1.3,0.1 2.5,-0.8 2.6,-2.1 l 0.9,-8.6 c 0.2,-1.3 -0.8,-2.5 -2.1,-2.6 z"
   id="path37"
   inkscape:connector-curvature="0"
   style="fill:#e6e7e8" />
					<path
   class="st19"
   d="m 388.3,344.1 -13,-1.3 c -1.3,-0.1 -2.5,0.8 -2.6,2.1 l -0.9,8.6 c -0.1,1.3 0.8,2.5 2.1,2.6 l 13,1.3 c 1.3,0.1 2.5,-0.8 2.6,-2.1 l 0.9,-8.6 c 0.1,-1.3 -0.8,-2.5 -2.1,-2.6 z"
   id="path39"
   inkscape:connector-curvature="0"
   style="fill:#e6e7e8" />
				</g>
				<g
   id="g65">
					<path
   class="st19"
   d="m 184.6,338.9 -24.9,-2.6 c -1.3,-0.1 -2.5,0.8 -2.6,2.1 l -0.9,8.6 c -0.1,1.3 0.8,2.5 2.1,2.6 l 24.9,2.6 c 1.3,0.1 2.5,-0.8 2.6,-2.1 l 0.9,-8.6 c 0.1,-1.3 -0.8,-2.5 -2.1,-2.6 z"
   id="path43"
   inkscape:connector-curvature="0"
   style="fill:#e6e7e8" />
					<path
   class="st19"
   d="m 205.9,341.1 -13,-1.3 c -1.3,-0.1 -2.5,0.8 -2.6,2.1 l -0.9,8.6 c -0.1,1.3 0.8,2.5 2.1,2.6 l 13,1.3 c 1.3,0.1 2.5,-0.8 2.6,-2.1 l 0.9,-8.6 c 0.2,-1.3 -0.8,-2.5 -2.1,-2.6 z"
   id="path45"
   inkscape:connector-curvature="0"
   style="fill:#e6e7e8" />
					<path
   class="st19"
   d="m 227.3,343.3 -13,-1.3 c -1.3,-0.1 -2.5,0.8 -2.6,2.1 l -0.9,8.6 c -0.1,1.3 0.8,2.5 2.1,2.6 l 13,1.3 c 1.3,0.1 2.5,-0.8 2.6,-2.1 l 0.9,-8.6 c 0.1,-1.3 -0.8,-2.5 -2.1,-2.6 z"
   id="path47"
   inkscape:connector-curvature="0"
   style="fill:#e6e7e8" />
					<path
   class="st19"
   d="m 248.6,345.5 -13,-1.3 c -1.3,-0.1 -2.5,0.8 -2.6,2.1 l -0.9,8.6 c -0.1,1.3 0.8,2.5 2.1,2.6 l 13,1.3 c 1.3,0.1 2.5,-0.8 2.6,-2.1 l 0.9,-8.6 c 0.2,-1.3 -0.8,-2.5 -2.1,-2.6 z"
   id="path49"
   inkscape:connector-curvature="0"
   style="fill:#e6e7e8" />
					<path
   class="st19"
   d="m 270,347.7 -13,-1.3 c -1.3,-0.1 -2.5,0.8 -2.6,2.1 l -0.9,8.6 c -0.1,1.3 0.8,2.5 2.1,2.6 l 13,1.3 c 1.3,0.1 2.5,-0.8 2.6,-2.1 l 0.9,-8.6 c 0.1,-1.3 -0.8,-2.5 -2.1,-2.6 z"
   id="path51"
   inkscape:connector-curvature="0"
   style="fill:#e6e7e8" />
					<path
   class="st19"
   d="m 291.3,349.9 -13,-1.3 c -1.3,-0.1 -2.5,0.8 -2.6,2.1 l -0.9,8.6 c -0.1,1.3 0.8,2.5 2.1,2.6 l 13,1.3 c 1.3,0.1 2.5,-0.8 2.6,-2.1 l 0.9,-8.6 c 0.2,-1.3 -0.8,-2.5 -2.1,-2.6 z"
   id="path53"
   inkscape:connector-curvature="0"
   style="fill:#e6e7e8" />
					<path
   class="st19"
   d="m 312.7,352.1 -13,-1.3 c -1.3,-0.1 -2.5,0.8 -2.6,2.1 l -0.9,8.6 c -0.1,1.3 0.8,2.5 2.1,2.6 l 13,1.3 c 1.3,0.1 2.5,-0.8 2.6,-2.1 l 0.9,-8.6 c 0.1,-1.3 -0.8,-2.5 -2.1,-2.6 z"
   id="path55"
   inkscape:connector-curvature="0"
   style="fill:#e6e7e8" />
					<path
   class="st19"
   d="M 334,354.3 321,353 c -1.3,-0.1 -2.5,0.8 -2.6,2.1 l -0.9,8.6 c -0.1,1.3 0.8,2.5 2.1,2.6 l 13,1.3 c 1.3,0.1 2.5,-0.8 2.6,-2.1 l 0.9,-8.6 c 0.2,-1.3 -0.8,-2.5 -2.1,-2.6 z"
   id="path57"
   inkscape:connector-curvature="0"
   style="fill:#e6e7e8" />
					<path
   class="st19"
   d="m 355.4,356.5 -13,-1.3 c -1.3,-0.1 -2.5,0.8 -2.6,2.1 l -0.9,8.6 c -0.1,1.3 0.8,2.5 2.1,2.6 l 13,1.3 c 1.3,0.1 2.5,-0.8 2.6,-2.1 l 0.9,-8.6 c 0.1,-1.3 -0.8,-2.5 -2.1,-2.6 z"
   id="path59"
   inkscape:connector-curvature="0"
   style="fill:#e6e7e8" />
					<path
   class="st19"
   d="m 376.7,358.7 -13,-1.3 c -1.3,-0.1 -2.5,0.8 -2.6,2.1 l -0.9,8.6 c -0.1,1.3 0.8,2.5 2.1,2.6 l 13,1.3 c 1.3,0.1 2.5,-0.8 2.6,-2.1 l 0.9,-8.6 c 0.2,-1.3 -0.8,-2.5 -2.1,-2.6 z"
   id="path61"
   inkscape:connector-curvature="0"
   style="fill:#e6e7e8" />
					<path
   class="st19"
   d="m 386.3,359.7 -1.3,-0.1 c -1.3,-0.1 -2.5,0.8 -2.6,2.1 l -0.9,8.6 c -0.1,1.3 0.8,2.5 2.1,2.6 l 1.3,0.1 c 1.3,0.1 2.5,-0.8 2.6,-2.1 l 0.9,-8.6 c 0.2,-1.3 -0.8,-2.5 -2.1,-2.6 z"
   id="path63"
   inkscape:connector-curvature="0"
   style="fill:#e6e7e8" />
				</g>
				<g
   id="g89">
					<path
   class="st19"
   d="m 178.1,289.9 -13,-1.3 c -1.3,-0.1 -2.5,0.8 -2.6,2.1 l -0.9,8.6 c -0.1,1.3 0.8,2.5 2.1,2.6 l 13,1.3 c 1.3,0.1 2.5,-0.8 2.6,-2.1 l 0.9,-8.6 c 0.2,-1.3 -0.8,-2.5 -2.1,-2.6 z"
   id="path67"
   inkscape:connector-curvature="0"
   style="fill:#e6e7e8" />
					<path
   class="st19"
   d="m 199.5,292.1 -13,-1.3 c -1.3,-0.1 -2.5,0.8 -2.6,2.1 l -0.9,8.6 c -0.1,1.3 0.8,2.5 2.1,2.6 l 13,1.3 c 1.3,0.1 2.5,-0.8 2.6,-2.1 l 0.9,-8.6 c 0.1,-1.3 -0.8,-2.5 -2.1,-2.6 z"
   id="path69"
   inkscape:connector-curvature="0"
   style="fill:#e6e7e8" />
					<path
   class="st19"
   d="m 220.8,294.3 -13,-1.3 c -1.3,-0.1 -2.5,0.8 -2.6,2.1 l -0.9,8.6 c -0.1,1.3 0.8,2.5 2.1,2.6 l 13,1.3 c 1.3,0.1 2.5,-0.8 2.6,-2.1 l 0.9,-8.6 c 0.2,-1.3 -0.8,-2.5 -2.1,-2.6 z"
   id="path71"
   inkscape:connector-curvature="0"
   style="fill:#e6e7e8" />
					<path
   class="st19"
   d="m 242.1,296.5 -13,-1.3 c -1.3,-0.1 -2.5,0.8 -2.6,2.1 l -0.9,8.6 c -0.1,1.3 0.8,2.5 2.1,2.6 l 13,1.3 c 1.3,0.1 2.5,-0.8 2.6,-2.1 l 0.9,-8.6 c 0.2,-1.3 -0.7,-2.5 -2.1,-2.6 z"
   id="path73"
   inkscape:connector-curvature="0"
   style="fill:#e6e7e8" />
					<path
   class="st19"
   d="m 263.5,298.7 -13,-1.3 c -1.3,-0.1 -2.5,0.8 -2.6,2.1 l -0.9,8.6 c -0.1,1.3 0.8,2.5 2.1,2.6 l 13,1.3 c 1.3,0.1 2.5,-0.8 2.6,-2.1 l 0.9,-8.6 c 0.2,-1.3 -0.8,-2.5 -2.1,-2.6 z"
   id="path75"
   inkscape:connector-curvature="0"
   style="fill:#e6e7e8" />
					<path
   class="st19"
   d="m 284.8,300.9 -13,-1.3 c -1.3,-0.1 -2.5,0.8 -2.6,2.1 l -0.9,8.6 c -0.1,1.3 0.8,2.5 2.1,2.6 l 13,1.3 c 1.3,0.1 2.5,-0.8 2.6,-2.1 l 0.9,-8.6 c 0.2,-1.3 -0.8,-2.5 -2.1,-2.6 z"
   id="path77"
   inkscape:connector-curvature="0"
   style="fill:#e6e7e8" />
					<path
   class="st19"
   d="m 306.2,303.1 -13,-1.3 c -1.3,-0.1 -2.5,0.8 -2.6,2.1 l -0.9,8.6 c -0.1,1.3 0.8,2.5 2.1,2.6 l 13,1.3 c 1.3,0.1 2.5,-0.8 2.6,-2.1 l 0.9,-8.6 c 0.1,-1.3 -0.8,-2.5 -2.1,-2.6 z"
   id="path79"
   inkscape:connector-curvature="0"
   style="fill:#e6e7e8" />
					<path
   class="st19"
   d="m 327.5,305.3 -13,-1.3 c -1.3,-0.1 -2.5,0.8 -2.6,2.1 l -0.9,8.6 c -0.1,1.3 0.8,2.5 2.1,2.6 l 13,1.3 c 1.3,0.1 2.5,-0.8 2.6,-2.1 l 0.9,-8.6 c 0.2,-1.3 -0.8,-2.5 -2.1,-2.6 z"
   id="path81"
   inkscape:connector-curvature="0"
   style="fill:#e6e7e8" />
					<path
   class="st19"
   d="m 348.9,307.5 -13,-1.3 c -1.3,-0.1 -2.5,0.8 -2.6,2.1 l -0.9,8.6 c -0.1,1.3 0.8,2.5 2.1,2.6 l 13,1.3 c 1.3,0.1 2.5,-0.8 2.6,-2.1 l 0.9,-8.6 c 0.1,-1.3 -0.8,-2.5 -2.1,-2.6 z"
   id="path83"
   inkscape:connector-curvature="0"
   style="fill:#e6e7e8" />
					<path
   class="st19"
   d="m 370.2,309.6 -13,-1.3 c -1.3,-0.1 -2.5,0.8 -2.6,2.1 l -0.9,8.6 c -0.1,1.3 0.8,2.5 2.1,2.6 l 13,1.3 c 1.3,0.1 2.5,-0.8 2.6,-2.1 l 0.9,-8.6 c 0.2,-1.2 -0.8,-2.4 -2.1,-2.6 z"
   id="path85"
   inkscape:connector-curvature="0"
   style="fill:#e6e7e8" />
					<path
   class="st19"
   d="m 391.6,311.8 -13,-1.3 c -1.3,-0.1 -2.5,0.8 -2.6,2.1 l -0.9,8.6 c -0.1,1.3 0.8,2.5 2.1,2.6 l 13,1.3 c 1.3,0.1 2.5,-0.8 2.6,-2.1 l 0.9,-8.6 c 0.1,-1.2 -0.8,-2.4 -2.1,-2.6 z"
   id="path87"
   inkscape:connector-curvature="0"
   style="fill:#e6e7e8" />
				</g>
				<g
   id="g113">
					<path
   class="st19"
   d="M 187.9,306.7 163,304.1 c -1.3,-0.1 -2.5,0.8 -2.6,2.1 l -0.9,8.6 c -0.1,1.3 0.8,2.5 2.1,2.6 l 24.9,2.6 c 1.3,0.1 2.5,-0.8 2.6,-2.1 l 0.9,-8.6 c 0.2,-1.3 -0.8,-2.5 -2.1,-2.6 z"
   id="path91"
   inkscape:connector-curvature="0"
   style="fill:#e6e7e8" />
					<path
   class="st19"
   d="m 209.3,308.9 -13,-1.3 c -1.3,-0.1 -2.5,0.8 -2.6,2.1 l -0.9,8.6 c -0.1,1.3 0.8,2.5 2.1,2.6 l 13,1.3 c 1.3,0.1 2.5,-0.8 2.6,-2.1 l 0.9,-8.6 c 0.1,-1.3 -0.8,-2.5 -2.1,-2.6 z"
   id="path93"
   inkscape:connector-curvature="0"
   style="fill:#e6e7e8" />
					<path
   class="st19"
   d="m 230.6,311.1 -13,-1.3 c -1.3,-0.1 -2.5,0.8 -2.6,2.1 l -0.9,8.6 c -0.1,1.3 0.8,2.5 2.1,2.6 l 13,1.3 c 1.3,0.1 2.5,-0.8 2.6,-2.1 l 0.9,-8.6 c 0.2,-1.3 -0.8,-2.5 -2.1,-2.6 z"
   id="path95"
   inkscape:connector-curvature="0"
   style="fill:#e6e7e8" />
					<path
   class="st19"
   d="m 251.9,313.3 -13,-1.3 c -1.3,-0.1 -2.5,0.8 -2.6,2.1 l -0.9,8.6 c -0.1,1.3 0.8,2.5 2.1,2.6 l 13,1.3 c 1.3,0.1 2.5,-0.8 2.6,-2.1 l 0.9,-8.6 c 0.2,-1.3 -0.7,-2.5 -2.1,-2.6 z"
   id="path97"
   inkscape:connector-curvature="0"
   style="fill:#e6e7e8" />
					<path
   class="st19"
   d="m 273.3,315.5 -13,-1.3 c -1.3,-0.1 -2.5,0.8 -2.6,2.1 l -0.9,8.6 c -0.1,1.3 0.8,2.5 2.1,2.6 l 13,1.3 c 1.3,0.1 2.5,-0.8 2.6,-2.1 l 0.9,-8.6 c 0.2,-1.3 -0.8,-2.5 -2.1,-2.6 z"
   id="path99"
   inkscape:connector-curvature="0"
   style="fill:#e6e7e8" />
					<path
   class="st19"
   d="m 294.6,317.7 -13,-1.3 c -1.3,-0.1 -2.5,0.8 -2.6,2.1 l -0.9,8.6 c -0.1,1.3 0.8,2.5 2.1,2.6 l 13,1.3 c 1.3,0.1 2.5,-0.8 2.6,-2.1 l 0.9,-8.6 c 0.2,-1.3 -0.8,-2.5 -2.1,-2.6 z"
   id="path101"
   inkscape:connector-curvature="0"
   style="fill:#e6e7e8" />
					<path
   class="st19"
   d="m 316,319.9 -13,-1.3 c -1.3,-0.1 -2.5,0.8 -2.6,2.1 l -0.9,8.6 c -0.1,1.3 0.8,2.5 2.1,2.6 l 13,1.3 c 1.3,0.1 2.5,-0.8 2.6,-2.1 l 0.9,-8.6 c 0.1,-1.3 -0.8,-2.5 -2.1,-2.6 z"
   id="path103"
   inkscape:connector-curvature="0"
   style="fill:#e6e7e8" />
					<path
   class="st19"
   d="m 337.3,322.1 -13,-1.3 c -1.3,-0.1 -2.5,0.8 -2.6,2.1 l -0.9,8.6 c -0.1,1.3 0.8,2.5 2.1,2.6 l 13,1.3 c 1.3,0.1 2.5,-0.8 2.6,-2.1 l 0.9,-8.6 c 0.2,-1.3 -0.8,-2.5 -2.1,-2.6 z"
   id="path105"
   inkscape:connector-curvature="0"
   style="fill:#e6e7e8" />
					<path
   class="st19"
   d="m 358.7,324.3 -13,-1.3 c -1.3,-0.1 -2.5,0.8 -2.6,2.1 l -0.9,8.6 c -0.1,1.3 0.8,2.5 2.1,2.6 l 13,1.3 c 1.3,0.1 2.5,-0.8 2.6,-2.1 l 0.9,-8.6 c 0.1,-1.3 -0.8,-2.5 -2.1,-2.6 z"
   id="path107"
   inkscape:connector-curvature="0"
   style="fill:#e6e7e8" />
					<path
   class="st19"
   d="m 380,326.5 -13,-1.3 c -1.3,-0.1 -2.5,0.8 -2.6,2.1 l -0.9,8.6 c -0.1,1.3 0.8,2.5 2.1,2.6 l 13,1.3 c 1.3,0.1 2.5,-0.8 2.6,-2.1 l 0.9,-8.6 c 0.2,-1.3 -0.8,-2.5 -2.1,-2.6 z"
   id="path109"
   inkscape:connector-curvature="0"
   style="fill:#e6e7e8" />
					<path
   class="st19"
   d="m 389.7,327.4 -1.3,-0.1 c -1.3,-0.1 -2.5,0.8 -2.6,2.1 l -0.9,8.6 c -0.1,1.3 0.8,2.5 2.1,2.6 l 1.3,0.1 c 1.3,0.1 2.5,-0.8 2.6,-2.1 l 0.9,-8.6 c 0.1,-1.2 -0.8,-2.4 -2.1,-2.6 z"
   id="path111"
   inkscape:connector-curvature="0"
   style="fill:#e6e7e8" />
				</g>
				<g
   id="g129">
					<path
   class="st19"
   d="m 171.4,355.2 -13,-1.3 c -1.3,-0.1 -2.5,0.8 -2.6,2.1 l -0.9,8.6 c -0.1,1.3 0.8,2.5 2.1,2.6 l 13,1.3 c 1.3,0.1 2.5,-0.8 2.6,-2.1 l 0.9,-8.6 c 0.1,-1.2 -0.8,-2.4 -2.1,-2.6 z"
   id="path115"
   inkscape:connector-curvature="0"
   style="fill:#e6e7e8" />
					<path
   class="st19"
   d="m 192.7,357.4 -13,-1.3 c -1.3,-0.1 -2.5,0.8 -2.6,2.1 l -0.9,8.6 c -0.1,1.3 0.8,2.5 2.1,2.6 l 13,1.3 c 1.3,0.1 2.5,-0.8 2.6,-2.1 l 0.9,-8.6 c 0.2,-1.2 -0.8,-2.4 -2.1,-2.6 z"
   id="path117"
   inkscape:connector-curvature="0"
   style="fill:#e6e7e8" />
					<path
   class="st19"
   d="m 214.1,359.6 -13,-1.3 c -1.3,-0.1 -2.5,0.8 -2.6,2.1 l -0.9,8.6 c -0.1,1.3 0.8,2.5 2.1,2.6 l 13,1.3 c 1.3,0.1 2.5,-0.8 2.6,-2.1 l 0.9,-8.6 c 0.1,-1.3 -0.8,-2.4 -2.1,-2.6 z"
   id="path119"
   inkscape:connector-curvature="0"
   style="fill:#e6e7e8" />
					<path
   class="st19"
   d="m 320.6,370.6 -98.1,-10.1 c -1.3,-0.1 -2.5,0.8 -2.6,2.1 l -0.9,8.6 c -0.1,1.3 0.8,2.5 2.1,2.6 l 98.1,10.1 c 1.3,0.1 2.5,-0.8 2.6,-2.1 l 0.9,-8.6 c 0.1,-1.3 -0.8,-2.5 -2.1,-2.6 z"
   id="path121"
   inkscape:connector-curvature="0"
   style="fill:#e6e7e8" />
					<path
   class="st19"
   d="m 342.1,372.8 -13,-1.3 c -1.3,-0.1 -2.5,0.8 -2.6,2.1 l -0.9,8.6 c -0.1,1.3 0.8,2.5 2.1,2.6 l 13,1.3 c 1.3,0.1 2.5,-0.8 2.6,-2.1 l 0.9,-8.6 c 0.2,-1.3 -0.8,-2.4 -2.1,-2.6 z"
   id="path123"
   inkscape:connector-curvature="0"
   style="fill:#e6e7e8" />
					<path
   class="st19"
   d="m 363.5,375 -13,-1.3 c -1.3,-0.1 -2.5,0.8 -2.6,2.1 l -0.9,8.6 c -0.1,1.3 0.8,2.5 2.1,2.6 l 13,1.3 c 1.3,0.1 2.5,-0.8 2.6,-2.1 l 0.9,-8.6 c 0.2,-1.3 -0.8,-2.4 -2.1,-2.6 z"
   id="path125"
   inkscape:connector-curvature="0"
   style="fill:#e6e7e8" />
					<path
   class="st19"
   d="m 384.8,377.2 -13,-1.3 c -1.3,-0.1 -2.5,0.8 -2.6,2.1 l -0.9,8.6 c -0.1,1.3 0.8,2.5 2.1,2.6 l 13,1.3 c 1.3,0.1 2.5,-0.8 2.6,-2.1 l 0.9,-8.6 c 0.2,-1.3 -0.8,-2.4 -2.1,-2.6 z"
   id="path127"
   inkscape:connector-curvature="0"
   style="fill:#e6e7e8" />
				</g>
			</g>
			<g
   id="g331">
				<g
   id="g161">
					<g
   id="g159">
						<defs
   id="defs134">
							<path
   id="SVGID_14_"
   d="M 283.5,67.1 C 164,67.1 67.1,164 67.1,283.5 c 0,26.3 4.7,51.5 13.3,74.8 30.5,82.7 109.9,141.6 203.1,141.6 93.2,0 172.7,-58.9 203.1,-141.6 8.6,-23.3 13.3,-48.5 13.3,-74.8 C 500,164 403.1,67.1 283.5,67.1 Z"
   inkscape:connector-curvature="0" />
						</defs>
						<clipPath
   id="SVGID_3_">
							<use
   xlink:href="#SVGID_14_"
   style="overflow:visible"
   id="use136"
   x="0"
   y="0"
   width="100%"
   height="100%" />
						</clipPath>
						<g
   class="st1"
   clip-path="url(#SVGID_3_)"
   id="g157">
							<g
   id="g155">
								<path
   class="st4"
   d="m 237.5,244.3 -4.3,40.7 c 0,3.4 2.7,6.1 6.1,6.1 h 73.6 c 3.4,0 6.1,-2.7 6.1,-6.1 l -4.3,-40.7 z"
   id="path139"
   inkscape:connector-curvature="0"
   style="fill:#ffffff" />
								<polygon
   class="st40"
   points="316.8,264 314.7,244.3 237.5,244.3 235.4,264 "
   id="polygon141"
   style="fill:#d1d3d4" />
								<g
   id="g151">
									<path
   class="st42"
   d="m 101.7,248.5 c 2,2.8 5.3,4.4 8.7,4.4 h 344.3 c 3.4,0 6.6,-1.6 8.6,-4.3 L 541.5,119.5 H 25.7 Z"
   id="path143"
   inkscape:connector-curvature="0"
   style="fill:#f1f2f2" />
									<path
   class="st40"
   d="M 526.2,105.9 H 38.7 c -3.5,0 -6.6,1.9 -8.3,5 l -4.6,8.6 h 515.8 l -7.9,-10 c -1.9,-2.3 -4.6,-3.6 -7.5,-3.6 z"
   id="path145"
   inkscape:connector-curvature="0"
   style="fill:#d1d3d4" />
									<polygon
   class="st43"
   points="541.5,119.5 25.7,119.5 98.6,244.3 466.6,244.3 "
   id="polygon147"
   style="fill:#231f20" />
									<polygon
   class="st43"
   points="529.5,125.4 39.6,125.4 104.5,235.3 463.4,235.3 "
   id="polygon149"
   style="fill:#231f20" />
								</g>
								<polygon
   class="st19"
   points="541.5,119.5 536.1,112.7 29.4,112.7 25.7,119.5 "
   id="polygon153"
   style="fill:#e6e7e8" />
							</g>
						</g>
					</g>
				</g>
				<g
   id="g199">
					<g
   id="g197">
						<defs
   id="defs164">
							<path
   id="SVGID_16_"
   d="M 283.5,67.1 C 164,67.1 67.1,164 67.1,283.5 c 0,26.3 4.7,51.5 13.3,74.8 30.5,82.7 109.9,141.6 203.1,141.6 93.2,0 172.7,-58.9 203.1,-141.6 8.6,-23.3 13.3,-48.5 13.3,-74.8 C 500,164 403.1,67.1 283.5,67.1 Z"
   inkscape:connector-curvature="0" />
						</defs>
						<clipPath
   id="SVGID_4_">
							<use
   xlink:href="#SVGID_16_"
   style="overflow:visible"
   id="use166"
   x="0"
   y="0"
   width="100%"
   height="100%" />
						</clipPath>
						<g
   clip-path="url(#SVGID_4_)"
   id="g195">
							<path
   class="st45"
   d="M 382.8,420.1 381.3,383 c -0.1,-3.3 -3,-5.9 -6.3,-5.8 -1.3,0.1 -2.3,1.1 -2.2,2.4 l 0.2,6 c 0,0.5 -0.4,1 -1,1 h -0.5 c -0.5,0 -1,-0.4 -1,-1 l -0.4,-9.3 c -0.1,-2 -1.8,-3.6 -3.9,-3.6 l -1.5,0.1 c -2,0.1 -3.6,1.8 -3.6,3.9 l 0.4,8.7 c 0,0.5 -0.4,1 -1,1 -0.9,0 -1.6,-0.6 -1.6,-1.5 l -0.5,-11.4 c -0.1,-3.5 -3.1,-6.2 -6.6,-6 -3.5,0.1 -6.2,3.1 -6,6.6 l 0.2,4.8 c 0,0.5 -0.4,1 -1,1 h -1 c -0.5,0 -1,-0.4 -1,-1 0,0 -0.1,-4.5 -1.1,-10.6 -0.5,-3.1 -3,-5.4 -6.1,-5.3 -4.1,0.2 -7.5,2.2 -7.5,7.6 -0.1,4 1.2,42.2 1.2,42.2 0,0.5 -0.4,1 -1,1 l -1.3,0.1 c -0.5,0 -1,-0.4 -1,-1 l -0.5,-11.2 c -0.1,-3.6 -3.1,-6.3 -6.7,-6.2 -3.6,0.1 -6.3,3.1 -6.2,6.7 l 1,24.7 c 0.2,5.5 3,10.5 7.5,13.7 l 13.5,9.5 34.6,-1.4 12,-23.2 c 0.8,-1.5 1.3,-3.2 1.3,-4.9 0.1,0 0.1,-0.2 0.1,-0.5 z"
   id="path169"
   inkscape:connector-curvature="0"
   style="fill:#ffa38a" />
							<path
   class="st46"
   d="m 379.6,429.3 c -27.1,18.6 -51.8,11.9 -62.6,7.2 1.2,1.7 2.6,3.1 4.3,4.3 l 13.5,9.5 34.6,-1.4 z"
   id="path171"
   inkscape:connector-curvature="0"
   style="fill:#eb876c" />
							<path
   class="st47"
   d="m 330.1,452 0.1,105.6 49.5,-2 -6.8,-105.3 c -0.1,-1.6 -1.5,-2.9 -3.1,-2.8 l -36.9,1.5 c -1.5,0.1 -2.8,1.4 -2.8,3 z"
   id="path173"
   inkscape:connector-curvature="0"
   style="fill:#ffc41d" />
							<g
   id="g191">
								<g
   id="g189">
									<path
   class="st48"
   d="m 335.2,452.1 c 0,-0.6 -0.5,-1.1 -1.1,-1 -0.6,0 -1.1,0.5 -1,1.1 l 0.2,6.1 c 0,0.6 0.5,1.1 1.1,1 0.6,0 1.1,-0.5 1,-1.1 z"
   id="path175"
   inkscape:connector-curvature="0"
   style="fill:#cc9d17" />
									<path
   class="st48"
   d="m 341,451.9 c 0,-0.6 -0.5,-1.1 -1.1,-1 -0.6,0 -1.1,0.5 -1,1.1 l 0.3,6.1 c 0,0.6 0.5,1.1 1.1,1 0.6,0 1.1,-0.5 1,-1.1 z"
   id="path177"
   inkscape:connector-curvature="0"
   style="fill:#cc9d17" />
									<path
   class="st48"
   d="m 346.7,451.7 c 0,-0.6 -0.5,-1.1 -1.1,-1 -0.6,0 -1.1,0.5 -1,1.1 l 0.3,6.1 c 0,0.6 0.5,1.1 1.1,1 0.6,0 1.1,-0.5 1,-1.1 z"
   id="path179"
   inkscape:connector-curvature="0"
   style="fill:#cc9d17" />
									<path
   class="st48"
   d="m 352.5,451.4 c 0,-0.6 -0.5,-1.1 -1.1,-1 -0.6,0 -1.1,0.5 -1,1.1 l 0.3,6.1 c 0,0.6 0.5,1.1 1.1,1 0.6,0 1.1,-0.5 1,-1.1 z"
   id="path181"
   inkscape:connector-curvature="0"
   style="fill:#cc9d17" />
									<path
   class="st48"
   d="m 358.3,451.2 c 0,-0.6 -0.5,-1.1 -1.1,-1 -0.6,0 -1.1,0.5 -1,1.1 l 0.2,6.1 c 0,0.6 0.5,1.1 1.1,1 0.6,0 1.1,-0.5 1,-1.1 z"
   id="path183"
   inkscape:connector-curvature="0"
   style="fill:#cc9d17" />
									<path
   class="st48"
   d="m 364,450.9 c 0,-0.6 -0.5,-1.1 -1.1,-1 -0.6,0 -1.1,0.5 -1,1.1 l 0.3,6.1 c 0,0.6 0.5,1.1 1.1,1 v 0 c 0.6,0 1.1,-0.5 1,-1.1 z"
   id="path185"
   inkscape:connector-curvature="0"
   style="fill:#cc9d17" />
									<path
   class="st48"
   d="m 369.8,450.7 c 0,-0.6 -0.5,-1.1 -1.1,-1 -0.6,0 -1.1,0.5 -1,1.1 l 0.3,6.1 c 0,0.6 0.5,1.1 1.1,1 0.6,0 1.1,-0.5 1,-1.1 z"
   id="path187"
   inkscape:connector-curvature="0"
   style="fill:#cc9d17" />
								</g>
							</g>
							<path
   class="st49"
   d="m 322.6,402.2 c -0.1,-2 -1.8,-3.6 -3.9,-3.5 -2.1,0.1 -3.6,1.8 -3.5,3.9 l 0.1,2 c 0.1,2 1.8,3.6 3.9,3.5 2.1,-0.1 3.6,-1.8 3.5,-3.9 z"
   id="path193"
   inkscape:connector-curvature="0"
   style="fill:#ffe8e0" />
						</g>
					</g>
				</g>
				<g
   id="g237">
					<g
   id="g235">
						<defs
   id="defs202">
							<path
   id="SVGID_18_"
   d="M 283.5,67.1 C 164,67.1 67.1,164 67.1,283.5 c 0,26.3 4.7,51.5 13.3,74.8 30.5,82.7 109.9,141.6 203.1,141.6 93.2,0 172.7,-58.9 203.1,-141.6 8.6,-23.3 13.3,-48.5 13.3,-74.8 C 500,164 403.1,67.1 283.5,67.1 Z"
   inkscape:connector-curvature="0" />
						</defs>
						<clipPath
   id="SVGID_6_">
							<use
   xlink:href="#SVGID_18_"
   style="overflow:visible"
   id="use204"
   x="0"
   y="0"
   width="100%"
   height="100%" />
						</clipPath>
						<g
   class="st16"
   clip-path="url(#SVGID_6_)"
   id="g233">
							<path
   class="st45"
   d="m 158.4,409 12,-35.2 c 1.1,-3.2 4.5,-4.9 7.7,-3.8 1.2,0.4 1.9,1.7 1.5,3 l -1.9,5.7 c -0.2,0.5 0.1,1.1 0.6,1.3 l 0.5,0.2 c 0.5,0.2 1.1,-0.1 1.3,-0.6 l 3,-8.8 c 0.7,-1.9 2.8,-3 4.7,-2.3 l 1.4,0.5 c 1.9,0.7 3,2.8 2.3,4.7 l -2.8,8.2 c -0.2,0.5 0.1,1.1 0.6,1.3 0.8,0.3 1.7,-0.2 2,-1 l 3.7,-10.8 c 1.1,-3.3 4.7,-5.1 8,-3.9 3.3,1.1 5.1,4.7 3.9,8 l -1.6,4.6 c -0.2,0.5 0.1,1.1 0.6,1.3 l 0.9,0.3 c 0.5,0.2 1.1,-0.1 1.3,-0.6 0,0 1.4,-4.2 4.1,-9.9 1.4,-2.8 4.4,-4.3 7.3,-3.3 3.9,1.3 6.5,4.2 5.1,9.4 -1.1,3.9 -13,40.2 -13,40.2 -0.2,0.5 0.1,1.1 0.6,1.3 l 1.3,0.4 c 0.5,0.2 1.1,-0.1 1.3,-0.6 l 3.6,-10.7 c 1.1,-3.4 4.8,-5.2 8.2,-4 3.4,1.1 5.2,4.8 4,8.2 l -8,23.4 c -1.8,5.2 -5.8,9.3 -11,11 l -15.6,5.3 -32.8,-11.1 -5,-25.6 c -0.3,-1.7 -0.3,-3.4 0.1,-5 -0.1,-0.6 0,-0.9 0.1,-1.1 z"
   id="path207"
   inkscape:connector-curvature="0"
   style="fill:#ffa38a" />
							<path
   class="st46"
   d="m 158.8,418.6 c 20.8,25.5 46.4,26 58,24.6 -1.6,1.3 -3.4,2.3 -5.4,2.9 l -15.6,5.3 -32.8,-11.1 z"
   id="path209"
   inkscape:connector-curvature="0"
   style="fill:#eb876c" />
							<path
   class="st47"
   d="m 199.9,454.5 -30,101.2 -46.9,-15.9 36.2,-99.1 c 0.6,-1.5 2.2,-2.3 3.8,-1.8 l 35,11.9 c 1.5,0.5 2.4,2.1 1.9,3.7 z"
   id="path211"
   inkscape:connector-curvature="0"
   style="fill:#ffc41d" />
							<g
   id="g229">
								<g
   id="g227">
									<path
   class="st48"
   d="m 195,453.1 c 0.2,-0.6 0.8,-0.9 1.4,-0.7 0.6,0.2 0.9,0.8 0.7,1.4 l -2,5.8 c -0.2,0.6 -0.8,0.9 -1.4,0.7 -0.6,-0.2 -0.9,-0.8 -0.7,-1.4 z"
   id="path213"
   inkscape:connector-curvature="0"
   style="fill:#cc9d17" />
									<path
   class="st48"
   d="m 189.5,451.3 c 0.2,-0.6 0.8,-0.9 1.4,-0.7 0.6,0.2 0.9,0.8 0.7,1.4 l -2,5.8 c -0.2,0.6 -0.8,0.9 -1.4,0.7 -0.6,-0.2 -0.9,-0.8 -0.7,-1.4 z"
   id="path215"
   inkscape:connector-curvature="0"
   style="fill:#cc9d17" />
									<path
   class="st48"
   d="m 184.1,449.4 c 0.2,-0.6 0.8,-0.9 1.4,-0.7 0.6,0.2 0.9,0.8 0.7,1.4 l -2,5.8 c -0.2,0.6 -0.8,0.9 -1.4,0.7 -0.6,-0.2 -0.9,-0.8 -0.7,-1.4 z"
   id="path217"
   inkscape:connector-curvature="0"
   style="fill:#cc9d17" />
									<path
   class="st48"
   d="m 178.6,447.6 c 0.2,-0.6 0.8,-0.9 1.4,-0.7 0.6,0.2 0.9,0.8 0.7,1.4 l -2,5.8 c -0.2,0.6 -0.8,0.9 -1.4,0.7 -0.6,-0.2 -0.9,-0.8 -0.7,-1.4 z"
   id="path219"
   inkscape:connector-curvature="0"
   style="fill:#cc9d17" />
									<path
   class="st48"
   d="m 173.1,445.7 c 0.2,-0.6 0.8,-0.9 1.4,-0.7 0.6,0.2 0.9,0.8 0.7,1.4 l -2,5.8 c -0.2,0.6 -0.8,0.9 -1.4,0.7 -0.6,-0.2 -0.9,-0.8 -0.7,-1.4 z"
   id="path221"
   inkscape:connector-curvature="0"
   style="fill:#cc9d17" />
									<path
   class="st48"
   d="m 167.7,443.9 c 0.2,-0.6 0.8,-0.9 1.4,-0.7 0.6,0.2 0.9,0.8 0.7,1.4 l -2,5.8 c -0.2,0.6 -0.8,0.9 -1.4,0.7 v 0 c -0.6,-0.2 -0.9,-0.8 -0.7,-1.4 z"
   id="path223"
   inkscape:connector-curvature="0"
   style="fill:#cc9d17" />
									<path
   class="st48"
   d="m 162.2,442 c 0.2,-0.6 0.8,-0.9 1.4,-0.7 0.6,0.2 0.9,0.8 0.7,1.4 l -2,5.8 c -0.2,0.6 -0.8,0.9 -1.4,0.7 -0.6,-0.2 -0.9,-0.8 -0.7,-1.4 z"
   id="path225"
   inkscape:connector-curvature="0"
   style="fill:#cc9d17" />
								</g>
							</g>
							<path
   class="st49"
   d="m 221.2,408.8 c 0.7,-1.9 2.8,-3 4.7,-2.3 1.9,0.7 3,2.8 2.3,4.7 l -0.6,1.9 c -0.7,1.9 -2.8,3 -4.7,2.3 -1.9,-0.7 -3,-2.8 -2.3,-4.7 z"
   id="path231"
   inkscape:connector-curvature="0"
   style="fill:#ffe8e0" />
						</g>
					</g>
				</g>
				<g
   id="g329">
					<g
   id="g327">
						<defs
   id="defs240">
							<path
   id="SVGID_20_"
   d="M 283.5,67.1 C 164,67.1 67.1,164 67.1,283.5 c 0,26.3 4.7,51.5 13.3,74.8 30.5,82.7 109.9,141.6 203.1,141.6 93.2,0 172.7,-58.9 203.1,-141.6 8.6,-23.3 13.3,-48.5 13.3,-74.8 C 500,164 403.1,67.1 283.5,67.1 Z"
   inkscape:connector-curvature="0" />
						</defs>
						<clipPath
   id="SVGID_7_">
							<use
   xlink:href="#SVGID_20_"
   style="overflow:visible"
   id="use242"
   x="0"
   y="0"
   width="100%"
   height="100%" />
						</clipPath>
						<g
   clip-path="url(#SVGID_7_)"
   id="g325">
							<polygon
   class="st4"
   points="469.4,140.5 55.4,140.5 110.3,233.4 413.6,233.4 "
   id="polygon245"
   style="fill:#ffffff" />
							<g
   id="g323">
								<g
   id="g321">
									<path
   class="st40"
   d="m 442.7,155.1 c -124.1,0 -248.2,0 -372.2,0 -2.2,-3.8 -3.4,-5.7 -5.6,-9.5 127.8,0 255.7,0 383.5,0 -2.3,3.8 -3.4,5.7 -5.7,9.5 z"
   id="path247"
   inkscape:connector-curvature="0"
   style="fill:#d1d3d4" />
									<path
   class="st52"
   d="m 440.1,157.5 c -8.1,0 -16.2,0 -24.2,0 -1.9,0 -3.1,-0.6 -2.7,-1.4 2.1,-4.1 3.1,-6.1 5.1,-10.2 0.4,-0.8 2.3,-1.4 4.3,-1.4 8.4,0 16.8,0 25.2,0 2,0 3.2,0.6 2.7,1.4 -2.5,4.1 -3.7,6.1 -6.2,10.2 -0.4,0.7 -2.3,1.4 -4.2,1.4 z"
   id="path249"
   inkscape:connector-curvature="0"
   style="fill:#099faa" />
									<path
   class="st4"
   d="m 431.1,147.2 c -2.9,1 -3.7,2.6 -2.2,3.6 -0.4,0.2 -0.6,0.2 -1,0.4 -0.3,0 -0.7,0.1 -0.9,0.2 -3.4,1.3 -5.1,1.9 -8.5,3.2 -0.5,0.2 -0.7,0.5 -0.3,0.7 0.2,0.1 0.3,0.1 0.5,0.2 0.4,0.2 1.1,0.2 1.7,0 3.4,-1.3 5.1,-1.9 8.5,-3.2 0.3,-0.1 0.5,-0.3 0.5,-0.4 0.4,-0.1 0.6,-0.2 1,-0.4 2.4,0.7 6.1,0.5 8.9,-0.5 3.2,-1.2 4,-2.9 1.8,-4 -2.3,-1.1 -6.8,-1 -10,0.2 z m 7.9,0.5 c 1.4,0.7 0.9,1.8 -1.1,2.6 -2.1,0.8 -4.9,0.8 -6.3,0.1 -1.4,-0.7 -1,-1.8 1.1,-2.6 1.9,-0.7 4.8,-0.8 6.3,-0.1 z"
   id="path251"
   inkscape:connector-curvature="0"
   style="fill:#ffffff" />
									<g
   id="g265">
										<path
   class="st47"
   d="m 436.1,166.3 c -21.4,0 -42.9,0 -64.3,0 0.7,-1.9 1.1,-2.8 1.8,-4.7 21.8,0 43.6,0 65.3,0 -1.1,1.9 -1.7,2.8 -2.8,4.7 z"
   id="path253"
   inkscape:connector-curvature="0"
   style="fill:#ffc41d" />
										<path
   class="st53"
   d="m 434.4,169.2 c -21.2,0 -42.5,0 -63.7,0 0.2,-0.6 0.3,-0.9 0.6,-1.5 21.4,0 42.7,0 64.1,0 -0.5,0.6 -0.7,0.9 -1,1.5 z"
   id="path255"
   inkscape:connector-curvature="0"
   style="fill:#939598" />
										<path
   class="st53"
   d="m 432.5,172.3 c -21,0 -42,0 -63.1,0 0.2,-0.6 0.3,-0.9 0.6,-1.5 21.1,0 42.3,0 63.4,0 -0.3,0.6 -0.5,0.9 -0.9,1.5 z"
   id="path257"
   inkscape:connector-curvature="0"
   style="fill:#939598" />
										<path
   class="st53"
   d="m 430.7,175.4 c -20.8,0 -41.6,0 -62.4,0 0.2,-0.6 0.3,-0.9 0.6,-1.5 20.9,0 41.8,0 62.7,0 -0.4,0.6 -0.6,0.9 -0.9,1.5 z"
   id="path259"
   inkscape:connector-curvature="0"
   style="fill:#939598" />
										<path
   class="st53"
   d="m 428.8,178.5 c -20.6,0 -41.2,0 -61.8,0 0.2,-0.6 0.3,-0.9 0.6,-1.5 20.7,0 41.4,0 62.1,0 -0.3,0.6 -0.5,0.9 -0.9,1.5 z"
   id="path261"
   inkscape:connector-curvature="0"
   style="fill:#939598" />
										<path
   class="st53"
   d="m 427,181.6 c -20.4,0 -40.7,0 -61.1,0 0.2,-0.6 0.3,-0.9 0.6,-1.5 20.5,0 40.9,0 61.4,0 -0.4,0.6 -0.5,0.9 -0.9,1.5 z"
   id="path263"
   inkscape:connector-curvature="0"
   style="fill:#939598" />
									</g>
									<g
   id="g273">
										<path
   class="st54"
   d="m 359.8,166.3 c -94.2,0 -188.4,0 -282.7,0 -1.1,-1.9 -1.7,-2.8 -2.8,-4.7 95.7,0 191.4,0 287.1,0 -0.6,1.9 -1,2.8 -1.6,4.7 z"
   id="path267"
   inkscape:connector-curvature="0"
   style="fill:#4482cd" />
										<path
   class="st53"
   d="m 358.8,169.2 c -93.3,0 -186.7,0 -280,0 -0.4,-0.6 -0.5,-0.9 -0.9,-1.5 93.8,0 187.6,0 281.4,0 -0.2,0.6 -0.3,0.9 -0.5,1.5 z"
   id="path269"
   inkscape:connector-curvature="0"
   style="fill:#939598" />
										<path
   class="st53"
   d="m 357.7,172.3 c -92.4,0 -184.7,0 -277.1,0 -0.4,-0.6 -0.5,-0.9 -0.9,-1.5 92.8,0 185.7,0 278.5,0 -0.2,0.6 -0.3,0.9 -0.5,1.5 z"
   id="path271"
   inkscape:connector-curvature="0"
   style="fill:#939598" />
									</g>
									<g
   id="g281">
										<path
   class="st54"
   d="m 354.8,181 c -89.7,0 -179.3,0 -269,0 -1.1,-1.9 -1.7,-2.8 -2.8,-4.7 91.1,0 182.3,0 273.4,0 -0.7,1.8 -1,2.8 -1.6,4.7 z"
   id="path275"
   inkscape:connector-curvature="0"
   style="fill:#4482cd" />
										<path
   class="st53"
   d="m 353.8,183.8 c -88.8,0 -177.5,0 -266.3,0 -0.4,-0.6 -0.5,-0.9 -0.9,-1.5 89.2,0 178.5,0 267.7,0 -0.2,0.6 -0.3,0.9 -0.5,1.5 z"
   id="path277"
   inkscape:connector-curvature="0"
   style="fill:#939598" />
										<path
   class="st53"
   d="m 352.7,186.9 c -87.8,0 -175.6,0 -263.4,0 -0.4,-0.6 -0.5,-0.9 -0.9,-1.5 88.3,0 176.6,0 264.8,0 -0.2,0.6 -0.3,0.9 -0.5,1.5 z"
   id="path279"
   inkscape:connector-curvature="0"
   style="fill:#939598" />
									</g>
									<g
   id="g289">
										<path
   class="st54"
   d="m 349.7,195.6 c -85.1,0 -170.2,0 -255.3,0 -1.1,-1.9 -1.7,-2.8 -2.8,-4.7 86.6,0 173.1,0 259.7,0 -0.6,1.9 -0.9,2.8 -1.6,4.7 z"
   id="path283"
   inkscape:connector-curvature="0"
   style="fill:#4482cd" />
										<path
   class="st53"
   d="m 348.8,198.5 c -84.2,0 -168.4,0 -252.6,0 -0.4,-0.6 -0.5,-0.9 -0.9,-1.5 84.7,0 169.4,0 254,0 -0.2,0.6 -0.3,0.9 -0.5,1.5 z"
   id="path285"
   inkscape:connector-curvature="0"
   style="fill:#939598" />
										<path
   class="st53"
   d="m 347.7,201.6 c -83.2,0 -166.5,0 -249.7,0 -0.4,-0.6 -0.5,-0.9 -0.9,-1.5 83.7,0 167.4,0 251.1,0 -0.2,0.6 -0.3,0.9 -0.5,1.5 z"
   id="path287"
   inkscape:connector-curvature="0"
   style="fill:#939598" />
									</g>
									<g
   id="g297">
										<path
   class="st54"
   d="m 344.7,210.3 c -80.5,0 -161.1,0 -241.6,0 -1.1,-1.9 -1.7,-2.8 -2.8,-4.7 82,0 164,0 246,0 -0.6,1.8 -0.9,2.8 -1.6,4.7 z"
   id="path291"
   inkscape:connector-curvature="0"
   style="fill:#4482cd" />
										<path
   class="st53"
   d="m 343.7,213.1 c -79.6,0 -159.3,0 -238.9,0 -0.4,-0.6 -0.5,-0.9 -0.9,-1.5 80.1,0 160.2,0 240.4,0 -0.3,0.6 -0.4,0.9 -0.6,1.5 z"
   id="path293"
   inkscape:connector-curvature="0"
   style="fill:#939598" />
										<path
   class="st53"
   d="m 342.7,216.2 c -78.7,0 -157.4,0 -236,0 -0.4,-0.6 -0.5,-0.9 -0.9,-1.5 79.2,0 158.3,0 237.5,0 -0.3,0.6 -0.4,0.9 -0.6,1.5 z"
   id="path295"
   inkscape:connector-curvature="0"
   style="fill:#939598" />
									</g>
									<g
   id="g305">
										<path
   class="st54"
   d="m 339.6,225.2 c -75.9,0 -151.8,0 -227.7,0 -1.1,-1.9 -1.7,-2.8 -2.8,-4.7 77.4,0 154.7,0 232.1,0 -0.6,1.9 -1,2.8 -1.6,4.7 z"
   id="path299"
   inkscape:connector-curvature="0"
   style="fill:#4482cd" />
										<path
   class="st53"
   d="m 338.6,228.1 c -75,0 -150,0 -225,0 -0.4,-0.6 -0.5,-0.9 -0.9,-1.5 75.5,0 150.9,0 226.4,0 -0.2,0.6 -0.3,0.9 -0.5,1.5 z"
   id="path301"
   inkscape:connector-curvature="0"
   style="fill:#939598" />
										<path
   class="st53"
   d="m 337.5,231.2 c -74,0 -148.1,0 -222.1,0 -0.4,-0.6 -0.5,-0.9 -0.9,-1.5 74.5,0 149,0 223.5,0 -0.1,0.6 -0.3,0.9 -0.5,1.5 z"
   id="path303"
   inkscape:connector-curvature="0"
   style="fill:#939598" />
									</g>
									<g
   id="g319">
										<path
   class="st47"
   d="m 420.5,192.6 c -19.6,0 -39.2,0 -58.8,0 0.7,-1.9 1.1,-2.8 1.8,-4.7 19.9,0 39.8,0 59.8,0 -1.2,1.8 -1.7,2.8 -2.8,4.7 z"
   id="path307"
   inkscape:connector-curvature="0"
   style="fill:#ffc41d" />
										<path
   class="st53"
   d="m 418.8,195.4 c -19.4,0 -38.8,0 -58.2,0 0.2,-0.6 0.3,-0.9 0.6,-1.5 19.5,0 39,0 58.5,0 -0.4,0.6 -0.6,0.9 -0.9,1.5 z"
   id="path309"
   inkscape:connector-curvature="0"
   style="fill:#939598" />
										<path
   class="st53"
   d="m 416.9,198.5 c -19.2,0 -38.3,0 -57.5,0 0.2,-0.6 0.3,-0.9 0.6,-1.5 19.3,0 38.5,0 57.8,0 -0.3,0.6 -0.5,0.9 -0.9,1.5 z"
   id="path311"
   inkscape:connector-curvature="0"
   style="fill:#939598" />
										<path
   class="st53"
   d="m 415.1,201.6 c -18.9,0 -37.9,0 -56.8,0 0.2,-0.6 0.3,-0.9 0.6,-1.5 19.1,0 38.1,0 57.2,0 -0.5,0.6 -0.7,0.9 -1,1.5 z"
   id="path313"
   inkscape:connector-curvature="0"
   style="fill:#939598" />
										<path
   class="st53"
   d="m 413.2,204.7 c -18.7,0 -37.4,0 -56.2,0 0.2,-0.6 0.3,-0.9 0.6,-1.5 18.8,0 37.7,0 56.5,0 -0.3,0.6 -0.5,0.9 -0.9,1.5 z"
   id="path315"
   inkscape:connector-curvature="0"
   style="fill:#939598" />
										<path
   class="st53"
   d="m 411.4,207.8 c -18.5,0 -37,0 -55.5,0 0.2,-0.6 0.3,-0.9 0.6,-1.5 18.6,0 37.2,0 55.8,0 -0.4,0.6 -0.6,0.9 -0.9,1.5 z"
   id="path317"
   inkscape:connector-curvature="0"
   style="fill:#939598" />
									</g>
								</g>
							</g>
						</g>
					</g>
				</g>
			</g>
		</g>
	</g>
</g>
</svg>