<?xml version="1.0" encoding="iso-8859-1"?>
<!-- Generator: Adobe Illustrator 19.0.0, SVG Export Plug-In . SVG Version: 6.00 Build 0)  -->
<svg version="1.1" id="Capa_1" xmlns="http://www.w3.org/2000/svg" xmlns:xlink="http://www.w3.org/1999/xlink" x="0px" y="0px"
	 viewBox="0 0 496 496" style="enable-background:new 0 0 496 496;" xml:space="preserve">
<path style="fill:#D1E5F1;" d="M488,448H8c-4.416,0-8-3.584-8-8V56c0-4.416,3.584-8,8-8h480c4.416,0,8,3.584,8,8v384
	C496,444.416,492.416,448,488,448z"/>
<path style="fill:#21A9F6;" d="M496,112H0V56c0-4.416,3.584-8,8-8h480c4.416,0,8,3.584,8,8V112z"/>
<path style="fill:#FA5419;" d="M368,8c0-4.416-3.584-8-8-8H136c-4.416,0-8,3.584-8,8v480c0,4.416,3.584,8,8,8h224
	c4.416,0,8-3.584,8-8V8z"/>
<g>
	<rect x="160" y="64" style="fill:#F1D9D0;" width="176" height="320"/>
	<circle style="fill:#F1D9D0;" cx="248" cy="440" r="24"/>
	<rect x="216" y="24" style="fill:#F1D9D0;" width="64" height="16"/>
</g>
<g>
	<rect x="24" y="72" style="fill:#D1E5F1;" width="16" height="16"/>
	<rect x="56" y="72" style="fill:#D1E5F1;" width="16" height="16"/>
	<rect x="88" y="72" style="fill:#D1E5F1;" width="16" height="16"/>
	<rect x="424" y="72" style="fill:#D1E5F1;" width="48" height="16"/>
</g>
<g>
	<rect x="192" y="216" style="fill:#FC9875;" width="32" height="16"/>
	<rect x="240" y="216" style="fill:#FC9875;" width="64" height="16"/>
	<rect x="272" y="248" style="fill:#FC9875;" width="32" height="16"/>
	<rect x="192" y="248" style="fill:#FC9875;" width="64" height="16"/>
	<rect x="192" y="280" style="fill:#FC9875;" width="32" height="16"/>
	<rect x="240" y="280" style="fill:#FC9875;" width="64" height="16"/>
	<rect x="272" y="312" style="fill:#FC9875;" width="32" height="16"/>
	<rect x="192" y="312" style="fill:#FC9875;" width="64" height="16"/>
	<path style="fill:#FC9875;" d="M210.344,181.656l-24-24c-3.128-3.128-3.128-8.184,0-11.312l24-24l11.312,11.312L203.312,152
		l18.344,18.344L210.344,181.656z"/>
	<path style="fill:#FC9875;" d="M285.656,181.656l-11.312-11.312L292.688,152l-18.344-18.344l11.312-11.312l24,24
		c3.128,3.128,3.128,8.184,0,11.312L285.656,181.656z"/>
	
		<rect x="222.7" y="144.019" transform="matrix(-0.3164 0.9486 -0.9486 -0.3164 470.6771 -35.1398)" style="fill:#FC9875;" width="50.599" height="16"/>
</g>
<g>
</g>
<g>
</g>
<g>
</g>
<g>
</g>
<g>
</g>
<g>
</g>
<g>
</g>
<g>
</g>
<g>
</g>
<g>
</g>
<g>
</g>
<g>
</g>
<g>
</g>
<g>
</g>
<g>
</g>
</svg>
