<?xml version="1.0" encoding="UTF-8" standalone="no"?>
<!-- Generator: Adobe Illustrator 23.0.6, SVG Export Plug-In . SVG Version: 6.00 Build 0)  -->

<svg
   xmlns:dc="http://purl.org/dc/elements/1.1/"
   xmlns:cc="http://creativecommons.org/ns#"
   xmlns:rdf="http://www.w3.org/1999/02/22-rdf-syntax-ns#"
   xmlns:svg="http://www.w3.org/2000/svg"
   xmlns="http://www.w3.org/2000/svg"
   xmlns:xlink="http://www.w3.org/1999/xlink"
   xmlns:sodipodi="http://sodipodi.sourceforge.net/DTD/sodipodi-0.dtd"
   xmlns:inkscape="http://www.inkscape.org/namespaces/inkscape"
   version="1.1"
   id="Capa_1"
   x="0px"
   y="0px"
   viewBox="0 0 434.80006 434.79997"
   xml:space="preserve"
   sodipodi:docname="camera.svg"
   width="434.80008"
   height="434.79999"
   inkscape:version="0.92.3 (2405546, 2018-03-11)"><metadata
   id="metadata394"><rdf:RDF><cc:Work
       rdf:about=""><dc:format>image/svg+xml</dc:format><dc:type
         rdf:resource="http://purl.org/dc/dcmitype/StillImage" /><dc:title></dc:title></cc:Work></rdf:RDF></metadata><defs
   id="defs392" /><sodipodi:namedview
   pagecolor="#ffffff"
   bordercolor="#666666"
   borderopacity="1"
   objecttolerance="10"
   gridtolerance="10"
   guidetolerance="10"
   inkscape:pageopacity="0"
   inkscape:pageshadow="2"
   inkscape:window-width="1853"
   inkscape:window-height="1025"
   id="namedview390"
   showgrid="false"
   fit-margin-top="1"
   fit-margin-right="1"
   fit-margin-bottom="1"
   fit-margin-left="1"
   inkscape:zoom="0.41629915"
   inkscape:cx="217.35001"
   inkscape:cy="217.44999"
   inkscape:window-x="67"
   inkscape:window-y="27"
   inkscape:window-maximized="1"
   inkscape:current-layer="Capa_1" />
<style
   type="text/css"
   id="style2">
	.st0{fill:none;}
	.st1{fill:none;stroke:#000000;stroke-width:0.3;stroke-linecap:square;}
	.st2{opacity:0.85;fill:url(#SVGID_1_);enable-background:new    ;}
	.st3{fill:#C9302B;}
	.st4{opacity:0.1;fill:url(#SVGID_2_);enable-background:new    ;}
	.st5{opacity:0.15;}
	.st6{fill:#FFFFFF;}
	.st7{fill:#1F1F1F;}
	.st8{fill:#262626;}
	.st9{opacity:0.1;fill:#FFFFFF;enable-background:new    ;}
	.st10{opacity:0.25;}
	.st11{fill:#292929;}
	.st12{fill:#D2CCCC;}
	.st13{opacity:0.15;fill:url(#SVGID_3_);enable-background:new    ;}
	.st14{fill:#C63636;}
	.st15{opacity:0.15;fill:#FFFFFF;enable-background:new    ;}
	.st16{opacity:0.35;}
	.st17{opacity:0.15;fill:url(#SVGID_5_);enable-background:new    ;}
	.st18{clip-path:url(#SVGID_7_);}
	.st19{fill:#FFA38A;}
	.st20{fill:#EB876C;}
	.st21{fill:#4B444C;}
	.st22{fill:#373238;}
	.st23{fill:#FFE8E0;}
	.st24{fill:#FCFCFC;}
</style>
<pattern
   y="566.9"
   width="72"
   height="72"
   patternUnits="userSpaceOnUse"
   id="SVGID_4_"
   viewBox="29.5 -73.9 72 72">
	<g
   id="g208">
		<rect
   x="29.5"
   y="-73.9"
   class="st0"
   width="72"
   height="72"
   id="rect4" />
		<g
   id="g206">
			<rect
   x="29.6"
   y="-73.9"
   class="st0"
   width="72"
   height="72"
   id="rect6" />
			<g
   id="g204">
				<rect
   x="29.7"
   y="-73.9"
   class="st0"
   width="72"
   height="72"
   id="rect8" />
				<g
   id="g202">
					<rect
   x="29.7"
   y="-73.9"
   class="st0"
   width="72"
   height="72"
   id="rect10" />
					<g
   id="g14">
						<line
   class="st1"
   x1="59.2"
   y1="-75.5"
   x2="59.2"
   y2="-72"
   id="line12" />
					</g>
					<g
   id="g36">
						<line
   class="st1"
   x1="100.5"
   y1="-11.6"
   x2="123.2"
   y2="-11.6"
   id="line16" />
						<line
   class="st1"
   x1="107.8"
   y1="-15.8"
   x2="100.5"
   y2="-15.8"
   id="line18" />
						<line
   class="st1"
   x1="100.5"
   y1="-27.3"
   x2="124.5"
   y2="-27.3"
   id="line20" />
						<line
   class="st1"
   x1="100.5"
   y1="-36.7"
   x2="131.2"
   y2="-36.7"
   id="line22" />
						<line
   class="st1"
   x1="100.5"
   y1="-52.3"
   x2="132.6"
   y2="-52.3"
   id="line24" />
						<line
   class="st1"
   x1="100.5"
   y1="-61.1"
   x2="103.2"
   y2="-61.1"
   id="line26" />
						<line
   class="st1"
   x1="100.5"
   y1="-55.3"
   x2="137.2"
   y2="-55.3"
   id="line28" />
						<line
   class="st1"
   x1="110.8"
   y1="-43.8"
   x2="100.5"
   y2="-43.8"
   id="line30" />
						<line
   class="st1"
   x1="100.5"
   y1="-68.3"
   x2="110.8"
   y2="-68.3"
   id="line32" />
						<line
   class="st1"
   x1="100.5"
   y1="-65.3"
   x2="124.8"
   y2="-65.3"
   id="line34" />
					</g>
					<g
   id="g172">
						<line
   class="st1"
   x1="28.7"
   y1="-11.6"
   x2="51.4"
   y2="-11.6"
   id="line38" />
						<line
   class="st1"
   x1="41.7"
   y1="-5.8"
   x2="85.2"
   y2="-5.8"
   id="line40" />
						<line
   class="st1"
   x1="45.9"
   y1="-11.6"
   x2="45.9"
   y2="-5.8"
   id="line42" />
						<line
   class="st1"
   x1="64"
   y1="-7.7"
   x2="95.5"
   y2="-7.7"
   id="line44" />
						<line
   class="st1"
   x1="50.2"
   y1="-9.3"
   x2="89.5"
   y2="-9.3"
   id="line46" />
						<line
   class="st1"
   x1="78.5"
   y1="-18.8"
   x2="98.8"
   y2="-18.8"
   id="line48" />
						<line
   class="st1"
   x1="91.8"
   y1="-18.8"
   x2="91.8"
   y2="-15.3"
   id="line50" />
						<line
   class="st1"
   x1="100.2"
   y1="-15.8"
   x2="94"
   y2="-15.8"
   id="line52" />
						<line
   class="st1"
   x1="35.9"
   y1="-15.8"
   x2="28.7"
   y2="-15.8"
   id="line54" />
						<line
   class="st1"
   x1="34.7"
   y1="-18.8"
   x2="58.9"
   y2="-18.8"
   id="line56" />
						<line
   class="st1"
   x1="67.8"
   y1="-11.6"
   x2="100.8"
   y2="-11.6"
   id="line58" />
						<line
   class="st1"
   x1="48.7"
   y1="-15.8"
   x2="72.8"
   y2="-15.8"
   id="line60" />
						<line
   class="st1"
   x1="81"
   y1="-24"
   x2="102.5"
   y2="-24"
   id="line62" />
						<line
   class="st1"
   x1="80.8"
   y1="-25.3"
   x2="102.5"
   y2="-25.3"
   id="line64" />
						<line
   class="st1"
   x1="36.9"
   y1="-24"
   x2="55.7"
   y2="-24"
   id="line66" />
						<line
   class="st1"
   x1="36.7"
   y1="-25.3"
   x2="49.2"
   y2="-25.3"
   id="line68" />
						<line
   class="st1"
   x1="51.4"
   y1="-21"
   x2="75.5"
   y2="-21"
   id="line70" />
						<line
   class="st1"
   x1="63.2"
   y1="-27.3"
   x2="83.2"
   y2="-27.3"
   id="line72" />
						<line
   class="st1"
   x1="76.2"
   y1="-27.3"
   x2="76.2"
   y2="-23.8"
   id="line74" />
						<line
   class="st1"
   x1="28.7"
   y1="-27.3"
   x2="52.7"
   y2="-27.3"
   id="line76" />
						<line
   class="st1"
   x1="33.7"
   y1="-27.3"
   x2="33.7"
   y2="-23.8"
   id="line78" />
						<line
   class="st1"
   x1="87.5"
   y1="-27.3"
   x2="100"
   y2="-27.3"
   id="line80" />
						<line
   class="st1"
   x1="59.4"
   y1="-24"
   x2="63.2"
   y2="-24"
   id="line82" />
						<line
   class="st1"
   x1="28.7"
   y1="-36.7"
   x2="59.4"
   y2="-36.7"
   id="line84" />
						<line
   class="st1"
   x1="49.7"
   y1="-30.8"
   x2="93.2"
   y2="-30.8"
   id="line86" />
						<line
   class="st1"
   x1="53.9"
   y1="-36.7"
   x2="53.9"
   y2="-30.8"
   id="line88" />
						<line
   class="st1"
   x1="72"
   y1="-32.7"
   x2="102.5"
   y2="-32.7"
   id="line90" />
						<line
   class="st1"
   x1="58.2"
   y1="-34.3"
   x2="97.5"
   y2="-34.3"
   id="line92" />
						<line
   class="st1"
   x1="86.5"
   y1="-43.8"
   x2="102.5"
   y2="-43.8"
   id="line94" />
						<line
   class="st1"
   x1="99.8"
   y1="-43.8"
   x2="99.8"
   y2="-40.3"
   id="line96" />
						<line
   class="st1"
   x1="85.5"
   y1="-40.8"
   x2="83.5"
   y2="-40.8"
   id="line98" />
						<line
   class="st1"
   x1="43.9"
   y1="-40.8"
   x2="37.7"
   y2="-40.8"
   id="line100" />
						<line
   class="st1"
   x1="42.7"
   y1="-43.8"
   x2="66.8"
   y2="-43.8"
   id="line102" />
						<line
   class="st1"
   x1="76.2"
   y1="-36.7"
   x2="102.5"
   y2="-36.7"
   id="line104" />
						<line
   class="st1"
   x1="56.7"
   y1="-40.8"
   x2="80.8"
   y2="-40.8"
   id="line106" />
						<line
   class="st1"
   x1="89"
   y1="-49.1"
   x2="102.5"
   y2="-49.1"
   id="line108" />
						<line
   class="st1"
   x1="88.8"
   y1="-50.3"
   x2="102.5"
   y2="-50.3"
   id="line110" />
						<line
   class="st1"
   x1="44.9"
   y1="-49.1"
   x2="63.7"
   y2="-49.1"
   id="line112" />
						<line
   class="st1"
   x1="44.7"
   y1="-50.3"
   x2="57.2"
   y2="-50.3"
   id="line114" />
						<line
   class="st1"
   x1="59.4"
   y1="-46.1"
   x2="83.5"
   y2="-46.1"
   id="line116" />
						<line
   class="st1"
   x1="71"
   y1="-52.3"
   x2="91.2"
   y2="-52.3"
   id="line118" />
						<line
   class="st1"
   x1="84.2"
   y1="-52.3"
   x2="84.2"
   y2="-48.8"
   id="line120" />
						<line
   class="st1"
   x1="28.7"
   y1="-52.3"
   x2="60.7"
   y2="-52.3"
   id="line122" />
						<line
   class="st1"
   x1="41.7"
   y1="-52.3"
   x2="41.7"
   y2="-48.8"
   id="line124" />
						<line
   class="st1"
   x1="95.5"
   y1="-52.3"
   x2="102.5"
   y2="-52.3"
   id="line126" />
						<line
   class="st1"
   x1="67.2"
   y1="-49.1"
   x2="71"
   y2="-49.1"
   id="line128" />
						<line
   class="st1"
   x1="28.7"
   y1="-61.1"
   x2="31.4"
   y2="-61.1"
   id="line130" />
						<line
   class="st1"
   x1="28.7"
   y1="-55.3"
   x2="65.2"
   y2="-55.3"
   id="line132" />
						<line
   class="st1"
   x1="44.2"
   y1="-57.1"
   x2="75.5"
   y2="-57.1"
   id="line134" />
						<line
   class="st1"
   x1="31.5"
   y1="-58.8"
   x2="69.5"
   y2="-58.8"
   id="line136" />
						<line
   class="st1"
   x1="58.7"
   y1="-68.3"
   x2="78.8"
   y2="-68.3"
   id="line138" />
						<line
   class="st1"
   x1="71.8"
   y1="-68.3"
   x2="71.8"
   y2="-64.8"
   id="line140" />
						<line
   class="st1"
   x1="81.2"
   y1="-65.3"
   x2="75"
   y2="-65.3"
   id="line142" />
						<line
   class="st1"
   x1="38.9"
   y1="-43.8"
   x2="28.7"
   y2="-43.8"
   id="line144" />
						<line
   class="st1"
   x1="28.7"
   y1="-68.3"
   x2="38.9"
   y2="-68.3"
   id="line146" />
						<line
   class="st1"
   x1="48.4"
   y1="-61.1"
   x2="81.2"
   y2="-61.1"
   id="line148" />
						<line
   class="st1"
   x1="28.7"
   y1="-65.3"
   x2="52.9"
   y2="-65.3"
   id="line150" />
						<line
   class="st1"
   x1="88.5"
   y1="-61.1"
   x2="102.5"
   y2="-61.1"
   id="line152" />
						<line
   class="st1"
   x1="67"
   y1="-70.5"
   x2="91"
   y2="-70.5"
   id="line154" />
						<line
   class="st1"
   x1="92"
   y1="-65.3"
   x2="102.5"
   y2="-65.3"
   id="line156" />
						<line
   class="st1"
   x1="31.4"
   y1="-70.5"
   x2="55.7"
   y2="-70.5"
   id="line158" />
						<line
   class="st1"
   x1="59.2"
   y1="-75.5"
   x2="59.2"
   y2="-72"
   id="line160" />
						<line
   class="st1"
   x1="92"
   y1="-56.8"
   x2="102.5"
   y2="-56.8"
   id="line162" />
						<line
   class="st1"
   x1="94.8"
   y1="-70.5"
   x2="98.5"
   y2="-70.5"
   id="line164" />
						<line
   class="st1"
   x1="45.9"
   y1="-3.7"
   x2="66"
   y2="-3.7"
   id="line166" />
						<line
   class="st1"
   x1="59.2"
   y1="-3.7"
   x2="59.2"
   y2="-0.2"
   id="line168" />
						<line
   class="st1"
   x1="32.4"
   y1="-6.2"
   x2="36.2"
   y2="-6.2"
   id="line170" />
					</g>
					<g
   id="g196">
						<line
   class="st1"
   x1="9.1"
   y1="-24"
   x2="30.7"
   y2="-24"
   id="line174" />
						<line
   class="st1"
   x1="8.8"
   y1="-25.3"
   x2="30.7"
   y2="-25.3"
   id="line176" />
						<line
   class="st1"
   x1="0.2"
   y1="-32.7"
   x2="30.7"
   y2="-32.7"
   id="line178" />
						<line
   class="st1"
   x1="14.6"
   y1="-43.8"
   x2="30.7"
   y2="-43.8"
   id="line180" />
						<line
   class="st1"
   x1="4.2"
   y1="-36.7"
   x2="30.7"
   y2="-36.7"
   id="line182" />
						<line
   class="st1"
   x1="17.1"
   y1="-49.1"
   x2="30.7"
   y2="-49.1"
   id="line184" />
						<line
   class="st1"
   x1="16.9"
   y1="-50.3"
   x2="30.7"
   y2="-50.3"
   id="line186" />
						<line
   class="st1"
   x1="23.6"
   y1="-52.3"
   x2="30.7"
   y2="-52.3"
   id="line188" />
						<line
   class="st1"
   x1="16.6"
   y1="-61.1"
   x2="30.7"
   y2="-61.1"
   id="line190" />
						<line
   class="st1"
   x1="20.1"
   y1="-65.3"
   x2="30.7"
   y2="-65.3"
   id="line192" />
						<line
   class="st1"
   x1="20.1"
   y1="-56.8"
   x2="30.7"
   y2="-56.8"
   id="line194" />
					</g>
					<g
   id="g200">
						<line
   class="st1"
   x1="59.2"
   y1="-3.7"
   x2="59.2"
   y2="-0.2"
   id="line198" />
					</g>
				</g>
			</g>
		</g>
	</g>
</pattern>
<g
   id="g387"
   transform="translate(-66.1,-66.1)">
	<g
   id="g385">
		
			<linearGradient
   id="SVGID_1_"
   gradientUnits="userSpaceOnUse"
   x1="283.5"
   y1="1471.3756"
   x2="283.5"
   y2="1904.1755"
   gradientTransform="matrix(1,0,0,-1,66.1,2037.3756)">
			<stop
   offset="0"
   style="stop-color:#6DAFDF"
   id="stop211" />
			<stop
   offset="0.8324"
   style="stop-color:#71B1DF"
   id="stop213" />
		</linearGradient>
		<path
   class="st2"
   d="M 283.5,67.1 C 164,67.1 67.1,164 67.1,283.5 c 0,26.3 4.7,51.5 13.3,74.8 30.5,82.7 109.9,141.6 203.1,141.6 93.2,0 172.7,-58.9 203.1,-141.6 8.6,-23.3 13.3,-48.5 13.3,-74.8 C 500,164 403.1,67.1 283.5,67.1 Z"
   id="path216"
   inkscape:connector-curvature="0"
   style="opacity:0.85;fill:url(#SVGID_1_);enable-background:new" />
		<g
   id="g339">
			<g
   id="g220">
				<path
   class="st3"
   d="m 384.3,195.6 h -227 c -18.3,0 -33.1,14.8 -33.1,33.1 v 35.6 c 0,18.3 14.8,33.1 33.1,33.1 h 155.6 18.4 53 c 18.3,0 33.1,-14.8 33.1,-33.1 v -35.6 c -0.1,-18.3 -14.9,-33.1 -33.1,-33.1 z m -118,77.3 H 156 c -3.4,0 -6.1,-2.7 -6.1,-6.1 0,-3.4 2.7,-6.1 6.1,-6.1 h 110.3 c 3.4,0 6.1,2.7 6.1,6.1 0,3.4 -2.8,6.1 -6.1,6.1 z m 0,-20.3 H 156 c -3.4,0 -6.1,-2.7 -6.1,-6.1 0,-3.4 2.7,-6.1 6.1,-6.1 h 110.3 c 3.4,0 6.1,2.7 6.1,6.1 0,3.3 -2.8,6.1 -6.1,6.1 z m 0,-20.4 H 156 c -3.4,0 -6.1,-2.7 -6.1,-6.1 0,-3.4 2.7,-6.1 6.1,-6.1 h 110.3 c 3.4,0 6.1,2.7 6.1,6.1 0,3.4 -2.8,6.1 -6.1,6.1 z"
   id="path218"
   inkscape:connector-curvature="0"
   style="fill:#c9302b" />
			</g>
			<pattern
   id="SVGID_2_"
   xlink:href="#SVGID_4_"
   patternTransform="matrix(0.0204,0,0,-0.0204,-30701.322,134.4635)">
			</pattern>
			<path
   class="st4"
   d="m 384.3,195.6 h -227 c -18.3,0 -33.1,14.8 -33.1,33.1 v 35.6 c 0,18.3 14.8,33.1 33.1,33.1 h 155.6 18.4 53 c 18.3,0 33.1,-14.8 33.1,-33.1 v -35.6 c -0.1,-18.3 -14.9,-33.1 -33.1,-33.1 z m -118,77.3 H 156 c -3.4,0 -6.1,-2.7 -6.1,-6.1 0,-3.4 2.7,-6.1 6.1,-6.1 h 110.3 c 3.4,0 6.1,2.7 6.1,6.1 0,3.4 -2.8,6.1 -6.1,6.1 z m 0,-20.3 H 156 c -3.4,0 -6.1,-2.7 -6.1,-6.1 0,-3.4 2.7,-6.1 6.1,-6.1 h 110.3 c 3.4,0 6.1,2.7 6.1,6.1 0,3.3 -2.8,6.1 -6.1,6.1 z m 0,-20.4 H 156 c -3.4,0 -6.1,-2.7 -6.1,-6.1 0,-3.4 2.7,-6.1 6.1,-6.1 h 110.3 c 3.4,0 6.1,2.7 6.1,6.1 0,3.4 -2.8,6.1 -6.1,6.1 z"
   id="path223"
   inkscape:connector-curvature="0"
   style="opacity:0.1;fill:url(#SVGID_2_);enable-background:new" />
			<g
   class="st5"
   id="g231"
   style="opacity:0.15">
				<path
   class="st6"
   d="m 156.6,274.2 h 110.9 c 3.4,0 6.1,-2.7 6.1,-6.1 0,-2 -1,-3.7 -2.4,-4.9 0.7,1 1.2,2.3 1.2,3.6 0,3.4 -2.7,6.1 -6.1,6.1 H 156 c -2.2,0 -4.1,-1.2 -5.2,-2.9 0.8,2.4 3.1,4.2 5.8,4.2 z"
   id="path225"
   inkscape:connector-curvature="0"
   style="fill:#ffffff" />
				<path
   class="st6"
   d="m 271.2,242.9 c 0.7,1 1.2,2.3 1.2,3.6 0,3.4 -2.7,6.1 -6.1,6.1 H 156 c -2.2,0 -4.1,-1.2 -5.2,-2.9 0.8,2.4 3.1,4.2 5.8,4.2 h 110.9 c 3.4,0 6.1,-2.7 6.1,-6.1 0,-2.1 -0.9,-3.8 -2.4,-4.9 z"
   id="path227"
   inkscape:connector-curvature="0"
   style="fill:#ffffff" />
				<path
   class="st6"
   d="m 271.2,222.5 c 0.7,1 1.2,2.3 1.2,3.6 0,3.4 -2.7,6.1 -6.1,6.1 H 156 c -2.2,0 -4.1,-1.2 -5.2,-2.9 0.8,2.4 3.1,4.2 5.8,4.2 h 110.9 c 3.4,0 6.1,-2.7 6.1,-6.1 0,-2 -0.9,-3.8 -2.4,-4.9 z"
   id="path229"
   inkscape:connector-curvature="0"
   style="fill:#ffffff" />
			</g>
			<g
   class="st5"
   id="g235"
   style="opacity:0.15">
				<path
   d="m 407.1,204.8 c 4.6,5.7 7.4,13 7.4,20.9 v 35.6 c 0,18.3 -14.8,33.1 -33.1,33.1 h -0.9 c 15.1,-9.9 25,-27 25,-46.3 0,-24.3 -15.6,-44.9 -37.4,-52.4 h -1.2 c 19.7,8.5 33.5,28.1 33.5,50.9 0,20.4 -11.1,38.3 -27.5,47.9 H 328.4 310 154.4 c -8.9,0 -16.9,-3.5 -22.9,-9.2 6.1,7.4 15.3,12.2 25.7,12.2 h 155.6 18.4 35.7 8.4 8.9 c 18.3,0 33.1,-14.8 33.1,-33.1 v -35.6 c 0,-9.5 -3.9,-18 -10.2,-24 z"
   id="path233"
   inkscape:connector-curvature="0" />
			</g>
			<path
   class="st7"
   d="M 266.3,272.9 H 156 c -3.4,0 -6.1,-2.7 -6.1,-6.1 0,-3.4 2.7,-6.1 6.1,-6.1 h 110.3 c 3.4,0 6.1,2.7 6.1,6.1 0,3.4 -2.8,6.1 -6.1,6.1 z m 0,-20.3 H 156 c -3.4,0 -6.1,-2.7 -6.1,-6.1 0,-3.4 2.7,-6.1 6.1,-6.1 h 110.3 c 3.4,0 6.1,2.7 6.1,6.1 0,3.3 -2.8,6.1 -6.1,6.1 z m 0,-20.4 H 156 c -3.4,0 -6.1,-2.7 -6.1,-6.1 0,-3.4 2.7,-6.1 6.1,-6.1 h 110.3 c 3.4,0 6.1,2.7 6.1,6.1 0,3.4 -2.8,6.1 -6.1,6.1 z"
   id="path237"
   inkscape:connector-curvature="0"
   style="fill:#1f1f1f" />
			<path
   class="st8"
   d="m 272.3,246.9 -1.2,1.2 -2.1,-2.1 2.1,-2.1 1,1 c -0.7,-2.6 -3.1,-4.6 -5.9,-4.6 h -0.7 l -1.1,1 -1.1,-1 h -4.6 l -1.1,1 -1,-1 H 252 l -1.1,1 -1,-1 h -4.6 l -1.1,1 -1.1,-1 h -4.6 l -1.1,1 -1,-1 h -4.6 l -1,1 -1.1,-1 h -4.6 l -1.1,1 -1.1,-1 h -4.6 l -1.1,1 -1,-1 h -4.6 l -1,1 -1.1,-1 h -4.6 l -1.1,1 -1.1,-1 h -4.6 l -1.1,1 -1.1,-1 h -4.6 l -1,1 -1,-1 h -4.6 l -1.1,1 -1.1,-1 h -4.6 l -1.1,1 -1.1,-1 h -4.6 l -1.1,1 -1,-1 h -4.6 l -1,1 -1.1,-1 h -4.6 l -1.1,1 -1,-1 h -0.5 c -0.6,0 -1.2,0.1 -1.8,0.3 l 2.1,2.1 -2.1,2.1 -2.1,-2.1 2.1,-2.1 c -1.9,0.6 -3.5,2.1 -4,4 l 0.7,-0.7 2.1,2.1 -2.1,2.1 -0.9,-0.9 c 0.3,2.9 2.7,5.2 5.7,5.4 l 1.9,-1.9 1.9,1.9 h 2.8 l 1.9,-1.9 1.9,1.9 h 2.8 l 1.9,-1.9 1.9,1.9 h 2.8 l 1.9,-1.9 1.9,1.9 h 2.8 l 1.9,-1.9 1.9,1.9 h 2.8 l 1.9,-1.9 1.9,1.9 h 2.8 l 1.9,-1.9 1.9,1.9 h 2.8 l 1.9,-1.9 1.9,1.9 h 2.8 l 1.9,-1.9 1.9,1.9 h 2.8 l 1.9,-1.9 1.9,1.9 h 2.8 l 1.9,-1.9 1.9,1.9 h 2.8 l 1.9,-1.9 1.9,1.9 h 2.8 l 1.9,-1.9 1.9,1.9 h 2.8 l 1.9,-1.9 1.9,1.9 h 2.8 l 1.9,-1.9 1.9,1.9 h 2.8 l 1.9,-1.9 1.9,1.9 h 2.8 l 1.9,-1.9 1.9,1.9 c 5.4,-0.1 7.9,-2.6 8.1,-5.7 z m -4.5,-6.3 2.1,2.1 -2.1,2.1 -2.1,-2.1 z m -6.6,0 2.1,2.1 -2.1,2.1 -2.1,-2.1 z m -6.7,0 2.1,2.1 -2.1,2.1 -2.1,-2.1 z m -6.7,0 2.1,2.1 -2.1,2.1 -2.1,-2.1 z m -6.7,0 2.1,2.1 -2.1,2.1 -2.1,-2.1 z m -6.7,0 2.1,2.1 -2.1,2.1 -2.1,-2.1 z m -6.7,0 2.1,2.1 -2.1,2.1 -2.1,-2.1 z m -6.7,0 2.1,2.1 -2.1,2.1 -2.1,-2.1 z m -6.6,0 2.1,2.1 -2.1,2.1 -2.1,-2.1 z m -6.7,0 2.1,2.1 -2.1,2.1 -2.1,-2.1 z m -6.7,0 2.1,2.1 -2.1,2.1 -2.1,-2.1 z m -6.7,0 2.1,2.1 -2.1,2.1 -2.1,-2.1 z m -6.7,0 2.1,2.1 -2.1,2.1 -2.1,-2.1 z m -6.7,0 2.1,2.1 -2.1,2.1 -2.1,-2.1 z m -6.6,0 2.1,2.1 -2.1,2.1 -2.1,-2.1 z m -6.7,0 2.1,2.1 -2.1,2.1 -2.1,-2.1 z m -6.7,0 2.1,2.1 -2.1,2.1 -2.1,-2.1 z m -6.7,10.8 -2.1,-2.1 2.1,-2.1 2.1,2.1 z m 1.3,-5.4 2.1,-2.1 2.1,2.1 -2.1,2.1 z m 5.4,5.4 -2.1,-2.1 2.1,-2.1 2.1,2.1 z m 1.3,-5.4 2.1,-2.1 2.1,2.1 -2.1,2.1 z m 5.4,5.4 -2.1,-2.1 2.1,-2.1 2.1,2.1 z m 1.2,-5.4 2.1,-2.1 2.1,2.1 -2.1,2.1 z m 5.5,5.4 -2.1,-2.1 2.1,-2.1 2.1,2.1 z m 1.2,-5.4 2.1,-2.1 2.1,2.1 -2.1,2.1 z m 5.4,5.4 -2.1,-2.1 2.1,-2.1 2.1,2.1 z m 1.3,-5.4 2.1,-2.1 2.1,2.1 -2.1,2.1 z m 5.4,5.4 -2.1,-2.1 2.1,-2.1 2.1,2.1 z m 1.3,-5.4 2.1,-2.1 2.1,2.1 -2.1,2.1 z m 5.4,5.4 -2.1,-2.1 2.1,-2.1 2.1,2.1 z m 1.3,-5.4 2.1,-2.1 2.1,2.1 -2.1,2.1 z m 5.4,5.4 -2.1,-2.1 2.1,-2.1 2.1,2.1 z m 1.3,-5.4 2.1,-2.1 2.1,2.1 -2.1,2.1 z m 5.4,5.4 -2.1,-2.1 2.1,-2.1 2.1,2.1 z m 1.3,-5.4 2.1,-2.1 2.1,2.1 -2.1,2.1 z m 5.4,5.4 -2.1,-2.1 2.1,-2.1 2.1,2.1 z m 1.2,-5.4 2.1,-2.1 2.1,2.1 -2.1,2.1 z m 5.4,5.4 -2.1,-2.1 2.1,-2.1 2.1,2.1 z m 1.3,-5.4 2.1,-2.1 2.1,2.1 -2.1,2.1 z m 5.4,5.4 -2.1,-2.1 2.1,-2.1 2.1,2.1 z m 1.3,-5.4 2.1,-2.1 2.1,2.1 -2.1,2.1 z m 5.4,5.4 -2.1,-2.1 2.1,-2.1 2.1,2.1 z m 1.3,-5.4 2.1,-2.1 2.1,2.1 -2.1,2.1 z m 5.4,5.4 -2.1,-2.1 2.1,-2.1 2.1,2.1 z m 1.3,-5.4 2.1,-2.1 2.1,2.1 -2.1,2.1 z m 5.4,5.4 -2.1,-2.1 2.1,-2.1 2.1,2.1 z m 1.3,-5.4 2.1,-2.1 2.1,2.1 -2.1,2.1 z m 5.4,5.4 -2.1,-2.1 2.1,-2.1 2.1,2.1 z m 1.2,-5.4 2.1,-2.1 2.1,2.1 -2.1,2.1 z m 5.5,5.4 -2.1,-2.1 2.1,-2.1 2.1,2.1 z m 1.2,-5.4 2.1,-2.1 2.1,2.1 -2.1,2.1 z m 5.4,5.4 -2.1,-2.1 2.1,-2.1 2.1,2.1 z M 150,224.7 l 0.8,-0.8 2.1,2.1 -2.1,2.1 -0.9,-0.9 c 0.5,2.9 3,5 5.9,5.1 l 1.6,-1.6 1.6,1.6 h 3.4 l 1.6,-1.6 1.6,1.6 h 3.4 l 1.6,-1.6 1.6,1.6 h 3.4 l 1.6,-1.6 1.6,1.6 h 3.4 l 1.6,-1.6 1.6,1.6 h 3.4 l 1.6,-1.6 1.6,1.6 h 3.4 l 1.6,-1.6 1.6,1.6 h 3.4 l 1.6,-1.6 1.6,1.6 h 3.4 l 1.6,-1.6 1.6,1.6 h 3.4 l 1.6,-1.6 1.6,1.6 h 3.4 l 1.6,-1.6 1.6,1.6 h 3.4 l 1.6,-1.6 1.6,1.6 h 3.4 l 1.6,-1.6 1.6,1.6 h 3.4 l 1.6,-1.6 1.6,1.6 h 3.4 l 1.6,-1.6 1.6,1.6 h 3.4 l 1.6,-1.6 1.6,1.6 h 3.4 l 1.6,-1.6 1.6,1.6 h 0.2 c 3.1,0 5.7,-2.3 6,-5.3 l -1.1,1.1 -2.1,-2.1 2.1,-2.1 1.1,1.1 c -0.5,-2.8 -3,-5 -6,-5 h -0.4 l -1.3,1.3 -1.3,-1.3 h -4 l -1.3,1.3 -1.3,-1.3 h -4 l -1.3,1.3 -1.3,-1.3 h -4 l -1.3,1.3 -1.3,-1.3 h -4 l -1.3,1.3 -1.3,-1.3 h -4 l -1.3,1.3 -1.3,-1.3 h -4 l -1.3,1.3 -1.3,-1.3 h -4 l -1.3,1.3 -1.3,-1.3 h -4 l -1.3,1.3 -1.3,-1.3 h -4 l -1.3,1.3 -1.3,-1.3 h -4 l -1.3,1.3 -1.3,-1.3 h -4 l -1.3,1.3 -1.3,-1.3 h -4 l -1.3,1.3 -1.3,-1.3 h -4 l -1.3,1.3 -1.3,-1.3 h -4 l -1.3,1.3 -1.3,-1.3 h -4 l -1.3,1.3 -1.3,-1.3 h -4 l -1.3,1.3 -1.3,-1.3 H 156 c -2.9,0 -5.3,2 -6,4.7 z m 4.2,6.7 -2.1,-2.1 2.1,-2.1 2.1,2.1 z m 6.7,0 -2.1,-2.1 2.1,-2.1 2.1,2.1 z m 6.7,0 -2.1,-2.1 2.1,-2.1 2.1,2.1 z m 6.7,0 -2.1,-2.1 2.1,-2.1 2.1,2.1 z m 6.6,0 -2.1,-2.1 2.1,-2.1 2.1,2.1 z m 6.7,0 -2.1,-2.1 2.1,-2.1 2.1,2.1 z m 6.7,0 -2.1,-2.1 2.1,-2.1 2.1,2.1 z m 6.7,0 -2.1,-2.1 2.1,-2.1 2.1,2.1 z m 6.7,0 -2.1,-2.1 2.1,-2.1 2.1,2.1 z m 6.7,0 -2.1,-2.1 2.1,-2.1 2.1,2.1 z m 6.6,0 -2.1,-2.1 2.1,-2.1 2.1,2.1 z m 6.7,0 -2.1,-2.1 2.1,-2.1 2.1,2.1 z m 6.7,0 -2.1,-2.1 2.1,-2.1 2.1,2.1 z m 6.7,0 -2.1,-2.1 2.1,-2.1 2.1,2.1 z m 6.7,0 -2.1,-2.1 2.1,-2.1 2.1,2.1 z m 6.7,0 -2.1,-2.1 2.1,-2.1 2.1,2.1 z m 6.7,0 -2.1,-2.1 2.1,-2.1 2.1,2.1 z m 8.7,-2.1 -2.1,2.1 -2.1,-2.1 2.1,-2.1 z m -2.1,-8.7 2.1,2.1 -2.1,2.1 -2.1,-2.1 z m -1.2,5.4 -2.1,2.1 -2.1,-2.1 2.1,-2.1 z m -5.4,-5.4 2.1,2.1 -2.1,2.1 -2.1,-2.1 z m -1.3,5.4 -2.1,2.1 -2.1,-2.1 2.1,-2.1 z m -5.4,-5.4 2.1,2.1 -2.1,2.1 -2.1,-2.1 z m -1.3,5.4 -2.1,2.1 -2.1,-2.1 2.1,-2.1 z m -5.4,-5.4 2.1,2.1 -2.1,2.1 -2.1,-2.1 z m -1.3,5.4 -2.1,2.1 -2.1,-2.1 2.1,-2.1 z m -5.4,-5.4 2.1,2.1 -2.1,2.1 -2.1,-2.1 z m -1.3,5.4 -2.1,2.1 -2.1,-2.1 2.1,-2.1 z m -5.4,-5.4 2.1,2.1 -2.1,2.1 -2.1,-2.1 z m -1.3,5.4 -2.1,2.1 -2.1,-2.1 2.1,-2.1 z m -5.4,-5.4 2.1,2.1 -2.1,2.1 -2.1,-2.1 z m -1.2,5.4 -2.1,2.1 -2.1,-2.1 2.1,-2.1 z m -5.5,-5.4 2.1,2.1 -2.1,2.1 -2.1,-2.1 z m -1.2,5.4 -2.1,2.1 -2.1,-2.1 2.1,-2.1 z m -5.4,-5.4 2.1,2.1 -2.1,2.1 -2.1,-2.1 z m -1.3,5.4 -2.1,2.1 -2.1,-2.1 2.1,-2.1 z m -5.4,-5.4 2.1,2.1 -2.1,2.1 -2.1,-2.1 z m -1.3,5.4 -2.1,2.1 -2.1,-2.1 2.1,-2.1 z m -5.4,-5.4 2.1,2.1 -2.1,2.1 -2.1,-2.1 z m -1.3,5.4 -2.1,2.1 -2.1,-2.1 2.1,-2.1 z m -5.4,-5.4 2.1,2.1 -2.1,2.1 -2.1,-2.1 z m -1.3,5.4 -2.1,2.1 -2.1,-2.1 2.1,-2.1 z m -5.4,-5.4 2.1,2.1 -2.1,2.1 -2.1,-2.1 z m -1.3,5.4 -2.1,2.1 -2.1,-2.1 2.1,-2.1 z m -5.4,-5.4 2.1,2.1 -2.1,2.1 -2.1,-2.1 z m -1.2,5.4 -2.1,2.1 -2.1,-2.1 2.1,-2.1 z m -5.4,-5.4 2.1,2.1 -2.1,2.1 -2.1,-2.1 z m -1.3,5.4 -2.1,2.1 -2.1,-2.1 2.1,-2.1 z m -5.4,-5.4 2.1,2.1 -2.1,2.1 -2.1,-2.1 z m -1.3,5.4 -2.1,2.1 -2.1,-2.1 2.1,-2.1 z m -5.4,-5.4 2.1,2.1 -2.1,2.1 -2.1,-2.1 z m -1.3,5.4 -2.1,2.1 -2.1,-2.1 2.1,-2.1 z m -5.4,-5.4 2.1,2.1 -2.1,2.1 -2.1,-2.1 z m 118.2,46.4 -1.2,1.2 -2.1,-2.1 2.1,-2.1 0.9,0.9 c -0.6,-1.8 -2.1,-3.3 -3.9,-3.9 l 1.7,1.7 -2.1,2.1 -2.1,-2.1 1.9,-1.9 c -0.4,-0.1 -0.9,-0.2 -1.4,-0.2 h -1 l -0.8,0.8 -0.8,-0.8 H 261 l 2,2 -2.1,2.1 -2.1,-2.1 2,-2 h -2.6 l -0.8,0.8 -0.8,-0.8 H 254 l 2,2 -2.1,2.1 -2.1,-2.1 2,-2 h -2.6 l -0.8,0.8 -0.8,-0.8 H 247 l 2,2 -2.1,2.1 -2.1,-2.1 2,-2 h -2.6 l -0.8,0.8 -0.8,-0.8 H 240 l 2,2 -2.1,2.1 -2.1,-2.1 2,-2 h -2.6 l -0.8,0.8 -0.8,-0.8 H 233 l 2,2 -2.1,2.1 -2.1,-2.1 2,-2 h -2.6 l -0.8,0.8 -0.8,-0.8 H 226 l 2,2 -2.1,2.1 -2.1,-2.1 2,-2 h -2.6 l -0.8,0.8 -0.8,-0.8 H 219 l 2,2 -2.1,2.1 -2.1,-2.1 2,-2 h -2.6 l -0.8,0.8 -0.8,-0.8 H 212 l 2,2 -2.1,2.1 -2.1,-2.1 2,-2 h -2.6 l -0.8,0.8 -0.8,-0.8 H 205 l 2,2 -2.1,2.1 -2.1,-2.1 2,-2 h -2.6 l -0.8,0.8 -0.8,-0.8 H 198 l 2,2 -2.1,2.1 -2.1,-2.1 2,-2 h -2.6 l -0.8,0.8 -0.8,-0.8 H 191 l 2,2 -2.1,2.1 -2.1,-2.1 2,-2 h -2.6 l -0.8,0.8 -0.8,-0.8 H 184 l 2,2 -2.1,2.1 -2.1,-2.1 2,-2 h -2.6 l -0.8,0.8 -0.8,-0.8 H 177 l 2,2 -2.1,2.1 -2.1,-2.1 2,-2 h -2.6 l -0.8,0.8 -0.8,-0.8 H 170 l 2,2 -2.1,2.1 -2.1,-2.1 2,-2 h -2.6 l -0.8,0.8 -0.8,-0.8 H 163 l 2,2 -2.1,2.1 -2.1,-2.1 2,-2 h -2.6 l -0.8,0.8 -0.8,-0.8 H 156 l 2,2 -2.1,2.1 -2.1,-2.1 2,-2 h -2.6 l -0.8,0.8 -0.8,-0.8 h -0.8 c -0.5,0 -1.1,0.1 -1.5,0.2 l 1.8,1.8 -2.1,2.1 -2.1,-2.1 1.6,-1.6 c -1.6,0.6 -2.8,1.9 -3.4,3.4 l 0.5,-0.5 2.1,2.1 -2.1,2.1 -1,-1 c 0.2,3.1 2.6,5.5 5.7,5.7 l -0.1,-0.1 2.1,-2.1 2.1,2.1 -0.2,0.2 h 2.9 l -0.2,-0.2 2.1,-2.1 2.1,2.1 -0.2,0.2 h 2.9 l -0.2,-0.2 2.1,-2.1 2.1,2.1 -0.2,0.2 h 2.9 l -0.2,-0.2 2.1,-2.1 2.1,2.1 -0.2,0.2 h 2.9 l -0.2,-0.2 2.1,-2.1 2.1,2.1 -0.2,0.2 h 2.9 l -0.2,-0.2 2.1,-2.1 2.1,2.1 -0.2,0.2 h 2.9 l -0.2,-0.2 2.1,-2.1 2.1,2.1 -0.2,0.2 h 2.9 l -0.2,-0.2 2.1,-2.1 2.1,2.1 -0.2,0.2 h 2.9 l -0.2,-0.2 2.1,-2.1 2.1,2.1 -0.2,0.2 h 2.9 l -0.2,-0.2 2.1,-2.1 2.1,2.1 -0.2,0.2 h 2.9 l -0.2,-0.2 2.1,-2.1 2.1,2.1 -0.2,0.2 h 2.9 l -0.2,-0.2 2.1,-2.1 2.1,2.1 -0.2,0.2 h 2.9 l -0.2,-0.2 2.1,-2.1 2.1,2.1 -0.2,0.2 h 2.9 l -0.2,-0.2 2.1,-2.1 2.1,2.1 -0.2,0.2 h 2.9 l -0.2,-0.2 2.1,-2.1 2.1,2.1 -0.2,0.2 h 2.9 l -0.2,-0.2 2.1,-2.1 2.1,2.1 -0.2,0.2 h 2.9 l -0.2,-0.2 2.1,-2.1 2.1,2.1 -0.1,0.1 c 8.2,0 10.8,-2.6 10.9,-5.8 z m -118.2,4.5 -2.1,-2.1 2.1,-2.1 2.1,2.1 z m 1.3,-5.4 2.1,-2.1 2.1,2.1 -2.1,2.1 z m 5.4,5.4 -2.1,-2.1 2.1,-2.1 2.1,2.1 z m 1.3,-5.4 2.1,-2.1 2.1,2.1 -2.1,2.1 z m 5.4,5.4 -2.1,-2.1 2.1,-2.1 2.1,2.1 z m 1.2,-5.4 2.1,-2.1 2.1,2.1 -2.1,2.1 z m 5.5,5.4 -2.1,-2.1 2.1,-2.1 2.1,2.1 z m 1.2,-5.4 2.1,-2.1 2.1,2.1 -2.1,2.1 z m 5.4,5.4 -2.1,-2.1 2.1,-2.1 2.1,2.1 z m 1.3,-5.4 2.1,-2.1 2.1,2.1 -2.1,2.1 z m 5.4,5.4 -2.1,-2.1 2.1,-2.1 2.1,2.1 z m 1.3,-5.4 2.1,-2.1 2.1,2.1 -2.1,2.1 z m 5.4,5.4 -2.1,-2.1 2.1,-2.1 2.1,2.1 z m 1.3,-5.4 2.1,-2.1 2.1,2.1 -2.1,2.1 z m 5.4,5.4 -2.1,-2.1 2.1,-2.1 2.1,2.1 z m 1.3,-5.4 2.1,-2.1 2.1,2.1 -2.1,2.1 z m 5.4,5.4 -2.1,-2.1 2.1,-2.1 2.1,2.1 z m 1.3,-5.4 2.1,-2.1 2.1,2.1 -2.1,2.1 z m 5.4,5.4 -2.1,-2.1 2.1,-2.1 2.1,2.1 z m 1.2,-5.4 2.1,-2.1 2.1,2.1 -2.1,2.1 z m 5.4,5.4 -2.1,-2.1 2.1,-2.1 2.1,2.1 z m 1.3,-5.4 2.1,-2.1 2.1,2.1 -2.1,2.1 z m 5.4,5.4 -2.1,-2.1 2.1,-2.1 2.1,2.1 z m 1.3,-5.4 2.1,-2.1 2.1,2.1 -2.1,2.1 z m 5.4,5.4 -2.1,-2.1 2.1,-2.1 2.1,2.1 z m 1.3,-5.4 2.1,-2.1 2.1,2.1 -2.1,2.1 z m 5.4,5.4 -2.1,-2.1 2.1,-2.1 2.1,2.1 z m 1.3,-5.4 2.1,-2.1 2.1,2.1 -2.1,2.1 z m 5.4,5.4 -2.1,-2.1 2.1,-2.1 2.1,2.1 z m 1.3,-5.4 2.1,-2.1 2.1,2.1 -2.1,2.1 z m 5.4,5.4 -2.1,-2.1 2.1,-2.1 2.1,2.1 z m 1.2,-5.4 2.1,-2.1 2.1,2.1 -2.1,2.1 z m 5.5,5.4 -2.1,-2.1 2.1,-2.1 2.1,2.1 z m 1.2,-5.4 2.1,-2.1 2.1,2.1 -2.1,2.1 z m 3.4,3.3 2.1,-2.1 2.1,2.1 -2.1,2.1 z"
   id="path239"
   inkscape:connector-curvature="0"
   style="fill:#262626" />
			<path
   class="st9"
   d="m 212.9,252.6 -1.6,-1.6 0.3,-0.3 1.9,1.9 z m 7.3,0 -1.9,-1.9 -0.3,0.3 1.6,1.6 z m 1.5,12.2 2.1,-2.1 -2,-2 h -0.1 l -0.3,0.3 1.8,1.8 -1.8,1.8 z m -14.8,-12.2 -1.9,-1.9 -0.3,0.3 1.6,1.6 z m 20,0 -1.9,-1.9 -0.3,0.3 1.6,1.6 z m -18.6,12.2 2.1,-2.1 -2,-2 h -0.1 l -0.3,0.3 1.8,1.8 -1.8,1.8 z m 46.8,0 2.1,-2.1 -2,-2 h -0.1 l -0.3,0.3 1.8,1.8 -1.8,1.8 z m -20.1,0 2.1,-2.1 -2,-2 H 235 l -0.3,0.3 1.8,1.8 -1.8,1.8 z m 12,-12.2 -1.9,-1.9 -0.3,0.3 1.6,1.6 z m 1.4,12.2 2.1,-2.1 -2,-2 h -0.1 l -0.3,0.3 1.8,1.8 -1.8,1.8 z m -57.1,-23.7 0.3,0.3 1,-1.1 H 192 Z m 62.4,11.5 -1.9,-1.9 -0.3,0.3 1.6,1.6 z m -52.1,12.2 2.1,-2.1 -2,-2 h -0.1 l -0.3,0.3 1.8,1.8 -1.8,1.8 z m 32,-12.2 -1.9,-1.9 -0.3,0.3 1.6,1.6 z m -5.3,12.2 2.1,-2.1 -2,-2 h -0.1 l -0.3,0.3 1.8,1.8 -1.8,1.8 z m 12,-12.2 -1.9,-1.9 -0.3,0.3 1.6,1.6 z m -25.3,12.2 2.1,-2.1 -2,-2 H 215 l -0.3,0.3 1.8,1.8 -1.8,1.8 z m -53.5,0 2.1,-2.1 -2,-2 h -0.1 l -0.3,0.3 1.8,1.8 -1.8,1.8 z m -3.7,-23.7 0.3,0.3 1,-1.1 h -0.6 z m 6.7,0 0.3,0.3 1,-1.1 h -0.6 z m 2.3,11.5 -1.9,-1.9 -0.3,0.3 1.6,1.6 z m 4.4,-11.5 0.3,0.3 1,-1.1 h -0.6 z m 13.4,0 0.3,0.3 1,-1.1 h -0.6 z m -16.4,23.7 2.1,-2.1 -2,-2 h -0.1 l -0.3,0.3 1.8,1.8 -1.8,1.8 z m 9.7,-23.7 0.3,0.3 1.1,-1.1 h -0.6 z m -3,23.7 2.1,-2.1 -2,-2 h -0.1 l -0.3,0.3 1.8,1.8 -1.8,1.8 z m 13.3,0 2.1,-2.1 -2,-2 h -0.1 l -0.3,0.3 1.8,1.8 -1.8,1.8 z m -14.8,-12.2 -1.9,-1.9 -0.3,0.3 1.6,1.6 z m 21.5,12.2 2.1,-2.1 -2,-2 h -0.1 l -0.3,0.3 1.8,1.8 -1.8,1.8 z m -8.1,-12.2 -1.9,-1.9 -0.3,0.3 1.6,1.6 z m 6.7,0 -1.9,-1.9 -0.3,0.3 1.6,1.6 z m -12,12.2 2.1,-2.1 -2,-2 h -0.1 l -0.3,0.3 1.8,1.8 -1.8,1.8 z m 18.7,-12.2 -1.9,-1.9 -0.3,0.3 1.6,1.6 z m -20.1,0 -1.9,-1.9 -0.3,0.3 1.6,1.6 z m 61.6,12.2 2.1,-2.1 -2,-2 h -0.1 l -0.3,0.3 1.8,1.8 -1.8,1.8 z m -17,-33.9 1.3,1.3 h 0.6 l -1.6,-1.6 z m -13.4,0 1.3,1.3 h 0.6 l -1.6,-1.6 z m -13.3,0 1.3,1.3 h 0.6 l -1.6,-1.6 z m 3.3,-3.3 1.8,1.8 -1.8,1.8 0.3,0.3 2.1,-2.1 -2.1,-2.1 z m 3.3,3.3 1.3,1.3 h 0.6 l -1.6,-1.6 z m 16.7,-3.3 1.8,1.8 -1.8,1.8 0.3,0.3 2.1,-2.1 -2.1,-2.1 z m -3.3,3.3 1.3,1.3 h 0.6 l -1.6,-1.6 z m -3.3,-3.3 1.8,1.8 -1.8,1.8 0.3,0.3 2.1,-2.1 -2.1,-2.1 z m -6.7,0 1.8,1.8 -1.8,1.8 0.3,0.3 2.1,-2.1 -2.1,-2.1 z m -13.4,0 1.8,1.8 -1.8,1.8 0.3,0.3 2.1,-2.1 -2.1,-2.1 z m -16.7,3.3 1.3,1.3 h 0.6 l -1.6,-1.6 z m -3.3,-3.3 1.8,1.8 -1.8,1.8 0.3,0.3 2.1,-2.1 -2.1,-2.1 z m -3.4,3.3 1.3,1.3 h 0.6 l -1.6,-1.6 z m 10,-3.3 1.8,1.8 -1.8,1.8 0.3,0.3 2.1,-2.1 -2.1,-2.1 z m 10.1,3.3 1.3,1.3 h 0.6 l -1.6,-1.6 z m -3.4,-3.3 1.8,1.8 -1.8,1.8 0.3,0.3 2.1,-2.1 -2.1,-2.1 z m -3.3,3.3 1.3,1.3 h 0.6 l -1.6,-1.6 z m 70.2,-3.3 1.8,1.8 -1.8,1.8 0.3,0.3 2.1,-2.1 -2.1,-2.1 z m 5.5,25 -1.9,-1.9 -0.3,0.3 1.6,1.6 z m 1.2,-25 1.8,1.8 -1.8,1.8 0.3,0.3 2.1,-2.1 -2.1,-2.1 z m 3.3,3.3 1.3,1.3 h 0.2 c 0.1,0 0.3,0 0.4,0 l -1.6,-1.6 z m -6.7,0 1.3,1.3 h 0.6 l -1.6,-1.6 z m 10,-10 1.8,1.8 -1.8,1.8 0.3,0.3 2.1,-2.1 -2.1,-2.1 z m -6.3,43.9 2.1,-2.1 -2,-2 h -0.1 l -0.3,0.3 1.8,1.8 -1.8,1.8 z m -33.8,-37.2 1.8,1.8 -1.8,1.8 0.3,0.3 2.1,-2.1 -2.1,-2.1 z m 40.1,0 1.8,1.8 -1.8,1.8 0.3,0.3 2.1,-2.1 -2.1,-2.1 z m 0.3,19.7 -0.3,0.3 1.8,1.8 -1.8,1.8 0.3,0.3 2.1,-2.1 z m -30.3,-16.4 1.3,1.3 h 0.6 l -1.6,-1.6 z m 13.3,0 1.3,1.3 h 0.6 l -1.6,-1.6 z m -20,0 1.3,1.3 h 0.6 l -1.6,-1.6 z m 3.3,-3.3 1.8,1.8 -1.8,1.8 0.3,0.3 2.1,-2.1 -2.1,-2.1 z m 13.4,0 1.8,1.8 -1.8,1.8 0.3,0.3 2.1,-2.1 -2.1,-2.1 z m -80.2,0 1.8,1.8 -1.8,1.8 0.3,0.3 2.1,-2.1 -2.1,-2.1 z m 73.5,0 1.8,1.8 -1.8,1.8 0.3,0.3 2.1,-2.1 -2.1,-2.1 z m 3.3,3.3 1.3,1.3 h 0.6 l -1.6,-1.6 z m -53.1,17.2 2.1,-2.1 -2.1,-2.1 -0.3,0.3 1.8,1.8 -1.8,1.8 z m -3.7,-7.2 1.8,1.8 -1.8,1.8 0.3,0.3 2.1,-2.1 -2.1,-2.1 z m 7,10.5 2.1,-2.1 -2.1,-2.1 -0.3,0.3 1.8,1.8 -1.8,1.8 z m -6.7,0 2.1,-2.1 -2.1,-2.1 -0.3,0.3 1.8,1.8 -1.8,1.8 z m -7,-10.5 1.8,1.8 -1.8,1.8 0.3,0.3 2.1,-2.1 -2.1,-2.1 z m 3.7,7.2 2.1,-2.1 -2.1,-2.1 -0.3,0.3 1.8,1.8 -1.8,1.8 z m -3.4,3.3 2.1,-2.1 -2.1,-2.1 -0.3,0.3 1.8,1.8 -1.8,1.8 z m 13.1,-10.5 1.8,1.8 -1.8,1.8 0.3,0.3 2.1,-2.1 -2.1,-2.1 z m 17,7.2 2.1,-2.1 -2.1,-2.1 -0.3,0.3 1.8,1.8 -1.8,1.8 z m -3.6,-7.2 1.8,1.8 -1.8,1.8 0.3,0.3 2.1,-2.1 -2.1,-2.1 z m -9.7,7.2 2.1,-2.1 -2.1,-2.1 -0.3,0.3 1.8,1.8 -1.8,1.8 z m -20.1,0 2.1,-2.1 -2.1,-2.1 -0.3,0.3 1.8,1.8 -1.8,1.8 z m 36.8,3.3 2.1,-2.1 -2.1,-2.1 -0.3,0.3 1.8,1.8 -1.8,1.8 z m -6.7,0 2.1,-2.1 -2.1,-2.1 -0.3,0.3 1.8,1.8 -1.8,1.8 z m -6.7,0 2.1,-2.1 -2.1,-2.1 -0.3,0.3 1.8,1.8 -1.8,1.8 z m 3.3,-3.3 2.1,-2.1 -2.1,-2.1 -0.3,0.3 1.8,1.8 -1.8,1.8 z m -3.6,-7.2 1.8,1.8 -1.8,1.8 0.3,0.3 2.1,-2.1 -2.1,-2.1 z m -29.8,7.2 2.1,-2.1 -2.1,-2.1 -0.3,0.3 1.8,1.8 -1.8,1.8 z m 100,-3.8 0.7,0.7 c -0.1,-0.3 -0.2,-0.6 -0.3,-0.9 l -0.1,-0.1 z m 0.3,-16.3 0.4,-0.4 c 0.1,-0.3 0.1,-0.5 0.2,-0.8 l -0.8,0.8 z m -3.4,36.8 2.1,-2.1 -1.2,-1.2 c -0.4,-0.2 -0.7,-0.4 -1.1,-0.5 l 1.7,1.7 -1.8,1.8 z m -3.6,-13.8 1.6,1.6 c 0.2,0 0.4,0 0.6,0 l -1.9,-1.9 z m -113.3,-23 2.1,-2.1 -2.1,-2.1 -0.3,0.3 1.8,1.8 -1.8,1.8 z m 6.7,20.1 2.1,-2.1 -2.1,-2.1 -0.3,0.3 1.8,1.8 -1.8,1.8 z m -3.4,16.7 2.1,-2.1 -1.8,-1.8 c 0.5,-0.1 1,-0.2 1.5,-0.2 H 156 c -0.5,0 -1.1,0.1 -1.5,0.2 l 1.8,1.8 -1.8,1.8 z m -0.3,-23.9 1.8,1.8 -1.8,1.8 0.3,0.3 2.1,-2.1 -2.1,-2.1 c 0.5,-0.2 1.1,-0.3 1.7,-0.3 v 0 H 156 c -0.6,0 -1.2,0.1 -1.8,0.3 l 0.2,0.2 c 0.1,-0.1 0.3,-0.1 0.4,-0.2 z m 7,10.5 2.1,-2.1 -2.1,-2.1 -0.3,0.3 1.8,1.8 -1.8,1.8 z m 53.2,-10.5 1.8,1.8 -1.8,1.8 0.3,0.3 2.1,-2.1 -2.1,-2.1 z m -39.8,10.5 2.1,-2.1 -2.1,-2.1 -0.3,0.3 1.8,1.8 -1.8,1.8 z m -7,-10.5 1.8,1.8 -1.8,1.8 0.3,0.3 2.1,-2.1 -2.1,-2.1 z m 0.3,10.5 2.1,-2.1 -2.1,-2.1 -0.3,0.3 1.8,1.8 -1.8,1.8 z m -7,-10.5 1.8,1.8 -1.8,1.8 0.3,0.3 2.1,-2.1 -2.1,-2.1 z m 13.4,0 1.8,1.8 -1.8,1.8 0.3,0.3 2.1,-2.1 -2.1,-2.1 z m -9.8,7.2 2.1,-2.1 -2.1,-2.1 -0.3,0.3 1.8,1.8 -1.8,1.8 z m 86.9,0 2.1,-2.1 -2.1,-2.1 -0.3,0.3 1.8,1.8 -1.8,1.8 z m 13.1,-7 0.3,0.3 1,-1.1 h -0.6 z m -13.4,0 0.3,0.3 1.1,-1.1 h -0.6 z m 6.7,0 0.3,0.3 1,-1.1 h -0.6 z m -3.3,-0.2 1.8,1.8 -1.8,1.8 0.3,0.3 2.1,-2.1 -2.1,-2.1 z m 13.6,3.8 2.1,-2.1 -1.8,-1.8 c -0.1,0 -0.2,-0.1 -0.3,-0.1 l -0.2,0.2 1.8,1.8 -1.8,1.8 z m -6.9,-3.8 1.8,1.8 -1.8,1.8 0.3,0.3 2.1,-2.1 -2.1,-2.1 z m -3.1,7.2 2.1,-2.1 -2.1,-2.1 -0.3,0.3 1.8,1.8 -1.8,1.8 z m 3.4,3.3 2.1,-2.1 -2.1,-2.1 -0.3,0.3 1.8,1.8 -1.8,1.8 z m 3.3,-3.3 2.1,-2.1 -2.1,-2.1 -0.3,0.3 1.8,1.8 -1.8,1.8 z m -53.8,-7 0.3,0.3 1,-1.1 H 212 Z m 7,7 2.1,-2.1 -2.1,-2.1 -0.3,0.3 1.8,1.8 -1.8,1.8 z m -0.3,-7 0.3,0.3 1.1,-1.1 h -0.6 z m 20.1,0 0.3,0.3 1,-1.1 h -0.6 z m -13.4,0 0.3,0.3 1.1,-1.1 h -0.6 z m 20,0 0.3,0.3 1,-1.1 h -0.6 z m -13.3,0 0.3,0.3 1.1,-1.1 h -0.6 z m -26.8,0 0.3,0.3 1.1,-1.1 h -0.6 z m 27.1,7 2.1,-2.1 -2.1,-2.1 -0.3,0.3 1.8,1.8 -1.8,1.8 z m -3.7,-7.2 1.8,1.8 -1.8,1.8 0.3,0.3 2.1,-2.1 -2.1,-2.1 z m 0.3,10.5 2.1,-2.1 -2.1,-2.1 -0.3,0.3 1.8,1.8 -1.8,1.8 z m 6.4,-10.5 1.8,1.8 -1.8,1.8 0.3,0.3 2.1,-2.1 -2.1,-2.1 z m 20.4,10.5 2.1,-2.1 -2.1,-2.1 -0.3,0.3 1.8,1.8 -1.8,1.8 z m -33.4,0 2.1,-2.1 -2.1,-2.1 -0.3,0.3 1.8,1.8 -1.8,1.8 z m -0.4,-10.5 1.8,1.8 -1.8,1.8 0.3,0.3 2.1,-2.1 -2.1,-2.1 z m 3.7,7.2 2.1,-2.1 -2.1,-2.1 -0.3,0.3 1.8,1.8 -1.8,1.8 z m 10,3.3 2.1,-2.1 -2.1,-2.1 -0.3,0.3 1.8,1.8 -1.8,1.8 z m 3.4,-3.3 2.1,-2.1 -2.1,-2.1 -0.3,0.3 1.8,1.8 -1.8,1.8 z m -40.4,-7 0.3,0.3 1,-1.1 h -0.6 z m 50.4,10.3 2.1,-2.1 -2.1,-2.1 -0.3,0.3 1.8,1.8 -1.8,1.8 z m -0.3,-10.5 1.8,1.8 -1.8,1.8 0.3,0.3 2.1,-2.1 -2.1,-2.1 z m -6.4,10.5 2.1,-2.1 -2.1,-2.1 -0.3,0.3 1.8,1.8 -1.8,1.8 z m -0.3,-10.5 1.8,1.8 -1.8,1.8 0.3,0.3 2.1,-2.1 -2.1,-2.1 z m 3.7,7.2 2.1,-2.1 -2.1,-2.1 -0.3,0.3 1.8,1.8 -1.8,1.8 z m -40.2,20 2.1,-2.1 -2.1,-2.1 -0.3,0.3 1.8,1.8 -1.8,1.8 z m -20,0 2.1,-2.1 -2.1,-2.1 -0.3,0.3 1.8,1.8 -1.8,1.8 z m 40.1,0 2.1,-2.1 -2.1,-2.1 -0.3,0.3 1.8,1.8 -1.8,1.8 z m 6.7,0 2.1,-2.1 -2.1,-2.1 -0.3,0.3 1.8,1.8 -1.8,1.8 z m 6.7,0 2.1,-2.1 -2.1,-2.1 -0.3,0.3 1.8,1.8 -1.8,1.8 z m -46.8,0 2.1,-2.1 -2.1,-2.1 -0.3,0.3 1.8,1.8 -1.8,1.8 z m 53.5,0 2.1,-2.1 -2.1,-2.1 -0.3,0.3 1.8,1.8 -1.8,1.8 z m -6.7,-46.7 1.3,-1.3 h -0.6 l -1,1 z m -40.1,46.7 2.1,-2.1 -2.1,-2.1 -0.3,0.3 1.8,1.8 -1.8,1.8 z m 20,0 2.1,-2.1 -2.1,-2.1 -0.3,0.3 1.8,1.8 -1.8,1.8 z m 46.8,-46.7 1.3,-1.3 c -0.1,0 -0.1,0 -0.2,0 h -0.4 l -1,1 z m -13.4,0 1.3,-1.3 h -0.6 l -1,1 z m 0,46.7 2.1,-2.1 -2.1,-2.1 -0.3,0.3 1.8,1.8 -1.8,1.8 z m -6.6,-46.7 1.3,-1.3 h -0.6 l -1,1 z m 13.3,0 1.3,-1.3 h -0.6 l -1,1 z m 0,46.7 2.1,-2.1 -2.1,-2.1 -0.3,0.3 1.8,1.8 -1.8,1.8 z m 13.1,-0.3 0.3,0.3 0.5,-0.5 c 0,-0.2 0,-0.4 0.1,-0.7 z m -6.4,0.3 2.1,-2.1 -2.1,-2.1 -0.3,0.3 1.8,1.8 -1.8,1.8 z m -53.5,0 2.1,-2.1 -2.1,-2.1 -0.3,0.3 1.8,1.8 -1.8,1.8 z m -60.1,-20 2.1,-2.1 -2.1,-2.1 -0.3,0.3 1.8,1.8 -1.8,1.8 z m 3.3,-16.7 2.1,-2.1 -2.1,-2.1 -0.3,0.3 1.8,1.8 -1.8,1.8 z m -4.7,13.3 0.7,-0.7 0.1,0.1 c 0.5,-1.3 1.5,-2.3 2.8,-3 l 0.5,-0.5 c -1.9,0.6 -3.5,2.1 -4.1,4.1 z m 7.7,-20.5 1.8,1.8 -1.8,1.8 0.3,0.3 2.1,-2.1 -2.1,-2.1 z m 20.4,43.9 2.1,-2.1 -2.1,-2.1 -0.3,0.3 1.8,1.8 -1.8,1.8 z m -10.3,-47.2 1.8,1.8 -1.8,1.8 0.3,0.3 2.1,-2.1 -2.1,-2.1 z m -3.4,3.3 1.8,1.8 -1.8,1.8 0.3,0.3 2.1,-2.1 -2.1,-2.1 z m -3.3,-3.3 1.8,1.8 -1.8,1.8 0.3,0.3 2.1,-2.1 -2.1,-2.1 z m -6.7,0 1.8,1.8 -1.8,1.8 0.3,0.3 2.1,-2.1 -2.1,-2.1 z m 10.3,47.2 2.1,-2.1 -2.1,-2.1 -0.3,0.3 1.8,1.8 -1.8,1.8 z m -10,-16.7 2.1,-2.1 -2.1,-2.1 -0.3,0.3 1.8,1.8 -1.8,1.8 z m 16.7,16.7 2.1,-2.1 -2.1,-2.1 -0.3,0.3 1.8,1.8 -1.8,1.8 z m -13.3,0 2.1,-2.1 -2.1,-2.1 -0.3,0.3 1.8,1.8 -1.8,1.8 z m -3.4,3.4 2.1,-2.1 -2.1,-2.1 -0.3,0.3 1.8,1.8 -1.8,1.8 z m -4.5,-6.9 0.5,-0.5 0.2,0.2 c 0.4,-0.9 1.1,-1.7 1.8,-2.3 l 0.8,-0.8 c -1.4,0.6 -2.7,1.8 -3.3,3.4 z m 1.2,3.5 2.1,-2.1 -2.1,-2.1 -0.3,0.3 1.8,1.8 -1.8,1.8 z m 66.8,-46.7 1.3,-1.3 H 219 l -1,1 z m -20,49.3 -0.3,0.3 1.8,1.8 -0.2,0.2 h 0.6 l 0.2,-0.2 z m 6.6,0 -0.3,0.3 1.8,1.8 -0.2,0.2 h 0.6 l 0.2,-0.2 z m -13.3,0 -0.3,0.3 1.8,1.8 -0.2,0.2 h 0.6 l 0.2,-0.2 z m 20,0 -0.3,0.3 1.8,1.8 -0.2,0.2 h 0.6 l 0.2,-0.2 z m -40.1,0 -0.3,0.3 1.8,1.8 -0.2,0.2 h 0.6 l 0.2,-0.2 z m 46.8,0 -0.3,0.3 1.8,1.8 -0.2,0.2 h 0.6 l 0.2,-0.2 z m -33.4,0 -0.3,0.3 1.8,1.8 -0.2,0.2 h 0.6 l 0.2,-0.2 z m -6.7,0 -0.3,0.3 1.8,1.8 -0.2,0.2 h 0.6 l 0.2,-0.2 z m 53.5,0 -0.3,0.3 1.8,1.8 -0.2,0.2 h 0.6 l 0.2,-0.2 z m -6.7,0 -0.3,0.3 1.8,1.8 -0.2,0.2 h 0.6 l 0.2,-0.2 z m 33.4,0 -0.3,0.3 1.8,1.8 -0.2,0.2 h 0.6 l 0.2,-0.2 z m 8.7,2.2 v 0 l -2,-2.2 -0.3,0.3 1.8,1.8 -0.1,0.1 c 0.1,0 0.4,0 0.6,0 z m -15.4,-2.2 -0.3,0.3 1.8,1.8 -0.2,0.2 h 0.6 l 0.2,-0.2 z m -6.6,0 -0.3,0.3 1.8,1.8 -0.2,0.2 h 0.6 l 0.2,-0.2 z m -80.3,0 -0.3,0.3 1.8,1.8 -0.2,0.2 h 0.6 l 0.2,-0.2 z m 73.6,0 -0.3,0.3 1.8,1.8 -0.2,0.2 h 0.6 l 0.2,-0.2 z m -26.8,-49.3 1.3,-1.3 h -0.6 l -1,1 z m -6.7,0 1.3,-1.3 h -0.6 l -1,1 z m -6.6,0 1.3,-1.3 H 199 l -1,1 z m -40.1,49.3 -0.3,0.3 1.8,1.8 -0.2,0.2 h 0.6 l 0.2,-0.2 z m 26.7,-49.3 1.3,-1.3 h -0.6 l -1,1 z m -13.7,2.8 1.8,1.8 -1.8,1.8 0.3,0.3 2.1,-2.1 -2.1,-2.1 z m 53.8,-2.8 1.3,-1.3 h -0.6 l -1,1 z m -46.8,0 1.3,-1.3 h -0.6 l -1,1 z m 53.5,0 1.3,-1.3 h -0.6 l -1,1 z m -40.1,0 1.3,-1.3 h -0.6 l -1,1 z m -36,31.1 v 0 c -2.4,-0.4 -4.4,-2.3 -5,-4.6 l -0.8,-0.8 c 0.5,3 2.9,5.3 5.8,5.4 z m 0.3,-20.3 v 0 c -2.4,-0.3 -4.4,-2 -5.1,-4.2 l -0.8,-0.8 c 0.5,2.8 2.9,5 5.9,5 z m -5.3,35.7 -0.7,-0.7 c 0.2,3.1 2.6,5.5 5.7,5.7 l -0.1,-0.1 c -2.5,-0.4 -4.5,-2.4 -4.9,-4.9 z m 0.3,-44 c 0.8,-2.2 2.9,-3.8 5.3,-3.9 v 0 H 156 c -2.9,0 -5.3,2 -5.9,4.7 z m 20.6,-2.5 1.3,-1.3 h -0.6 l -1,1 z m -6.7,0 1.3,-1.3 h -0.6 l -1,1 z m -6.6,0 1.3,-1.3 h -0.6 l -1,1 z m 103.3,-0.5 1.8,1.8 -1.8,1.8 0.3,0.3 2.1,-2.1 -2.1,-2.1 z m -46.5,50.6 2.1,-2.1 -2.1,-2.1 -0.3,0.3 1.8,1.8 -1.8,1.8 z m 6.7,0 2.1,-2.1 -2.1,-2.1 -0.3,0.3 1.8,1.8 -1.8,1.8 z m -20.1,0 2.1,-2.1 -2.1,-2.1 -0.3,0.3 1.8,1.8 -1.8,1.8 z m 24.2,-10.8 h -0.6 l -0.4,0.4 0.3,0.3 z m 2.5,10.8 2.1,-2.1 -2.1,-2.1 -0.3,0.3 1.8,1.8 -1.8,1.8 z m -22.6,-10.8 h -0.6 l -0.4,0.4 0.3,0.3 z m 6.7,0 h -0.6 l -0.4,0.4 0.3,0.3 z m -4.1,10.8 2.1,-2.1 -2.1,-2.1 -0.3,0.3 1.8,1.8 -1.8,1.8 z m 10.8,-10.8 h -0.6 l -0.4,0.4 0.3,0.3 z m 29.3,10.8 2.1,-2.1 -2.1,-2.1 -0.3,0.3 1.8,1.8 -1.8,1.8 z m 4.1,-10.8 h -0.6 l -0.4,0.4 0.3,0.3 z m 2.6,10.8 2.1,-2.1 -2.1,-2.1 -0.3,0.3 1.8,1.8 -1.8,1.8 z m -22.7,-10.8 h -0.6 l -0.4,0.4 0.3,0.3 z m 13.4,0 h -0.6 l -0.4,0.4 0.3,0.3 z m -4.1,10.8 2.1,-2.1 -2.1,-2.1 -0.3,0.3 1.8,1.8 -1.8,1.8 z m -6.7,0 2.1,-2.1 -2.1,-2.1 -0.3,0.3 1.8,1.8 -1.8,1.8 z m 4.1,-10.8 h -0.6 l -0.4,0.4 0.3,0.3 z m 20.1,0 h -0.6 l -0.4,0.4 0.3,0.3 z m -86.9,0 h -0.6 l -0.4,0.4 0.3,0.3 z m -6.7,0 H 165 l -0.4,0.4 0.3,0.3 z m 2.6,10.8 2.1,-2.1 -2.1,-2.1 -0.3,0.3 1.8,1.8 -1.8,1.8 z m -9.3,-10.8 h -0.6 l -0.4,0.4 0.3,0.3 z m 2.6,10.8 2.1,-2.1 -2.1,-2.1 -0.3,0.3 1.8,1.8 -1.8,1.8 z m -1.4,-18.9 -1.9,-1.9 -0.3,0.3 1.6,1.6 z m 1.1,-25 1.8,1.8 -1.8,1.8 0.3,0.3 2.1,-2.1 -2.1,-2.1 z m -3.4,3.3 1.3,1.3 h 0.6 l -1.6,-1.6 z m 21.2,29.8 h -0.6 l -0.4,0.4 0.3,0.3 z m 9.2,10.8 2.1,-2.1 -2.1,-2.1 -0.3,0.3 1.8,1.8 -1.8,1.8 z m 4.1,-10.8 h -0.6 l -0.4,0.4 0.3,0.3 z m 2.6,10.8 2.1,-2.1 -2.1,-2.1 -0.3,0.3 1.8,1.8 -1.8,1.8 z m -20,0 2.1,-2.1 -2.1,-2.1 -0.3,0.3 1.8,1.8 -1.8,1.8 z M 199,260.7 h -0.6 l -0.4,0.4 0.3,0.3 z m -17.5,10.8 2.1,-2.1 -2.1,-2.1 -0.3,0.3 1.8,1.8 -1.8,1.8 z m 4.1,-10.8 H 185 l -0.4,0.4 0.3,0.3 z m 82.8,10.8 2.1,-2.1 -2.1,-2.1 -0.3,0.3 1.8,1.8 -1.8,1.8 z m -6.6,0 2.1,-2.1 -2.1,-2.1 -0.3,0.3 1.8,1.8 -1.8,1.8 z m -50.5,-47.3 1.8,1.8 -1.8,1.8 0.3,0.3 2.1,-2.1 -2.1,-2.1 z m 3.4,-3.3 1.8,1.8 -1.8,1.8 0.3,0.3 2.1,-2.1 -2.1,-2.1 z m -10.1,3.3 1.8,1.8 -1.8,1.8 0.3,0.3 2.1,-2.1 -2.1,-2.1 z m 3.4,-3.3 1.8,1.8 -1.8,1.8 0.3,0.3 2.1,-2.1 -2.1,-2.1 z m 16.7,3.3 1.8,1.8 -1.8,1.8 0.3,0.3 2.1,-2.1 -2.1,-2.1 z m -3.4,-3.3 1.8,1.8 -1.8,1.8 0.3,0.3 2.1,-2.1 -2.1,-2.1 z m 6.7,0 1.8,1.8 -1.8,1.8 0.3,0.3 2.1,-2.1 -2.1,-2.1 z m -10,3.3 1.8,1.8 -1.8,1.8 0.3,0.3 2.1,-2.1 -2.1,-2.1 z m -33.4,0 1.8,1.8 -1.8,1.8 0.3,0.3 2.1,-2.1 -2.1,-2.1 z m -3.4,-3.3 1.8,1.8 -1.8,1.8 0.3,0.3 2.1,-2.1 -2.1,-2.1 z m -3.3,3.3 1.8,1.8 -1.8,1.8 0.3,0.3 2.1,-2.1 -2.1,-2.1 z m 20.1,0 1.8,1.8 -1.8,1.8 0.3,0.3 2.1,-2.1 -2.1,-2.1 z m -3.4,-3.3 1.8,1.8 -1.8,1.8 0.3,0.3 2.1,-2.1 -2.1,-2.1 z m -6.7,0 1.8,1.8 -1.8,1.8 0.3,0.3 2.1,-2.1 -2.1,-2.1 z m 3.4,3.3 1.8,1.8 -1.8,1.8 0.3,0.3 2.1,-2.1 -2.1,-2.1 z m 10,-3.3 1.8,1.8 -1.8,1.8 0.3,0.3 2.1,-2.1 -2.1,-2.1 z m 63.5,3.3 1.8,1.8 -1.8,1.8 0.3,0.3 2.1,-2.1 -2.1,-2.1 z m 6.7,0 0.8,0.8 c -0.1,-0.3 -0.1,-0.6 -0.2,-0.8 l -0.3,-0.3 z m -13.4,0 1.8,1.8 -1.8,1.8 0.3,0.3 2.1,-2.1 -2.1,-2.1 z m -93.6,6.7 1.3,1.3 h 0.6 l -1.6,-1.6 z m 66.9,-6.7 1.8,1.8 -1.8,1.8 0.3,0.3 2.1,-2.1 -2.1,-2.1 z m 40.3,39.9 -0.2,0.2 0.6,0.6 c -0.1,-0.3 -0.3,-0.6 -0.4,-0.8 z m -5.8,-3.4 h -0.6 l -0.4,0.4 0.3,0.3 z m -91.3,-39.8 1.8,1.8 -1.8,1.8 0.3,0.3 2.1,-2.1 -2.1,-2.1 z m 96.9,26.9 0.3,0.3 0.5,-0.5 c 0,-0.2 0.1,-0.5 0.1,-0.7 z m -33.4,-23.6 1.8,1.8 -1.8,1.8 0.3,0.3 2.1,-2.1 -2.1,-2.1 z m 16.7,-3.3 1.8,1.8 -1.8,1.8 0.3,0.3 2.1,-2.1 -2.1,-2.1 z m -13.4,0 1.8,1.8 -1.8,1.8 0.3,0.3 2.1,-2.1 -2.1,-2.1 z m -6.7,0 1.8,1.8 -1.8,1.8 0.3,0.3 2.1,-2.1 -2.1,-2.1 z m 16.7,3.3 1.8,1.8 -1.8,1.8 0.3,0.3 2.1,-2.1 -2.1,-2.1 z m -3.3,-3.3 1.8,1.8 -1.8,1.8 0.3,0.3 2.1,-2.1 -2.1,-2.1 z m -3.4,3.3 1.8,1.8 -1.8,1.8 0.3,0.3 2.1,-2.1 -2.1,-2.1 z"
   id="path241"
   inkscape:connector-curvature="0"
   style="opacity:0.1;fill:#ffffff;enable-background:new" />
			<g
   class="st10"
   id="g249"
   style="opacity:0.25">
				<path
   d="m 152.9,231.4 c -0.5,-0.9 -0.8,-1.9 -0.8,-3.1 0,-3.4 2.7,-6.1 6.1,-6.1 h 110.3 c 1.1,0 2.2,0.3 3.1,0.8 -1.1,-1.8 -3,-3 -5.3,-3 H 156 c -3.4,0 -6.1,2.7 -6.1,6.1 0,2.3 1.2,4.2 3,5.3 z"
   id="path243"
   inkscape:connector-curvature="0" />
				<path
   d="m 152.9,251.7 c -0.5,-0.9 -0.8,-1.9 -0.8,-3.1 0,-3.4 2.7,-6.1 6.1,-6.1 h 110.3 c 1.1,0 2.2,0.3 3.1,0.8 -1.1,-1.8 -3,-3 -5.3,-3 H 156 c -3.4,0 -6.1,2.7 -6.1,6.1 0,2.3 1.2,4.3 3,5.3 z"
   id="path245"
   inkscape:connector-curvature="0" />
				<path
   d="m 152.1,269 c 0,-3.4 2.7,-6.1 6.1,-6.1 h 110.3 c 1.1,0 2.2,0.3 3.1,0.8 -1.1,-1.8 -3,-3 -5.3,-3 H 156 c -3.4,0 -6.1,2.7 -6.1,6.1 0,2.3 1.2,4.2 3,5.3 -0.5,-0.9 -0.8,-2 -0.8,-3.1 z"
   id="path247"
   inkscape:connector-curvature="0" />
			</g>
			<path
   class="st11"
   d="m 345.1,295.1 c -26.9,0 -48.6,-21.8 -48.6,-48.6 0,-26.8 21.8,-48.6 48.6,-48.6 26.9,0 48.6,21.8 48.6,48.6 0,26.8 -21.8,48.6 -48.6,48.6 z"
   id="path251"
   inkscape:connector-curvature="0"
   style="fill:#292929" />
			<g
   class="st10"
   id="g255"
   style="opacity:0.25">
				<path
   d="m 300.2,248.7 c 0,-26.8 21.8,-48.6 48.6,-48.6 8.5,0 16.5,2.2 23.5,6.1 -7.8,-5.3 -17.1,-8.3 -27.2,-8.3 -26.9,0 -48.6,21.8 -48.6,48.6 0,18.3 10.1,34.3 25.1,42.6 -12.9,-8.8 -21.4,-23.6 -21.4,-40.4 z"
   id="path253"
   inkscape:connector-curvature="0" />
			</g>
			<path
   class="st7"
   d="m 185.2,297.3 -0.5,3.7 -1,7.9 c -0.4,2.9 -3.1,5.1 -6.4,5.1 h -8.9 c -3.3,0 -6.1,-2.2 -6.4,-5.1 l -1.5,-11.6 z m 181.8,0 c -3.1,1.4 -6.4,2.4 -9.8,3.2 l 1.1,8.4 c 0.4,2.9 3.1,5.1 6.4,5.1 h 8.9 c 3.3,0 6.1,-2.2 6.4,-5.1 l 1,-7.9 0.5,-3.7 z"
   id="path257"
   inkscape:connector-curvature="0"
   style="fill:#1f1f1f" />
			<g
   id="g261">
				<path
   class="st12"
   d="m 345.1,206.8 c -21.9,0 -39.6,17.7 -39.6,39.6 0,21.9 17.7,39.6 39.6,39.6 21.9,0 39.6,-17.7 39.6,-39.6 0,-21.8 -17.7,-39.6 -39.6,-39.6 z"
   id="path259"
   inkscape:connector-curvature="0"
   style="fill:#d2cccc" />
			</g>
			
				<radialGradient
   id="SVGID_3_"
   cx="345.10001"
   cy="1724.8756"
   r="39.599998"
   gradientTransform="matrix(1,0,0,-1,66.1,2037.3756)"
   gradientUnits="userSpaceOnUse">
				<stop
   offset="0.2527"
   style="stop-color:#FFFFFF"
   id="stop263" />
				<stop
   offset="0.5071"
   style="stop-color:#FDFDFD"
   id="stop265" />
				<stop
   offset="0.5988"
   style="stop-color:#F6F6F6"
   id="stop267" />
				<stop
   offset="0.6641"
   style="stop-color:#EBEBEB"
   id="stop269" />
				<stop
   offset="0.717"
   style="stop-color:#DADADA"
   id="stop271" />
				<stop
   offset="0.7622"
   style="stop-color:#C4C4C4"
   id="stop273" />
				<stop
   offset="0.8023"
   style="stop-color:#A8A8A8"
   id="stop275" />
				<stop
   offset="0.8386"
   style="stop-color:#888888"
   id="stop277" />
				<stop
   offset="0.8719"
   style="stop-color:#626262"
   id="stop279" />
				<stop
   offset="0.9029"
   style="stop-color:#373737"
   id="stop281" />
				<stop
   offset="0.9304"
   style="stop-color:#090909"
   id="stop283" />
				<stop
   offset="0.9355"
   style="stop-color:#000000"
   id="stop285" />
			</radialGradient>
			<path
   class="st13"
   d="m 345.1,206.8 c -21.9,0 -39.6,17.7 -39.6,39.6 0,21.9 17.7,39.6 39.6,39.6 21.9,0 39.6,-17.7 39.6,-39.6 0,-21.8 -17.7,-39.6 -39.6,-39.6 z"
   id="path288"
   inkscape:connector-curvature="0"
   style="opacity:0.15;fill:url(#SVGID_3_);enable-background:new" />
			<g
   id="g292">
				<path
   class="st14"
   d="m 345.1,191.1 c -30.6,0 -55.4,24.8 -55.4,55.4 0,30.6 24.8,55.4 55.4,55.4 30.6,0 55.4,-24.8 55.4,-55.4 0,-30.6 -24.8,-55.4 -55.4,-55.4 z m 0,104 c -26.9,0 -48.6,-21.8 -48.6,-48.6 0,-26.8 21.8,-48.6 48.6,-48.6 26.9,0 48.6,21.8 48.6,48.6 0,26.8 -21.8,48.6 -48.6,48.6 z"
   id="path290"
   inkscape:connector-curvature="0"
   style="fill:#c63636" />
			</g>
			<g
   class="st5"
   id="g296"
   style="opacity:0.15">
				<path
   class="st6"
   d="m 395.8,247.8 c 0,-17.3 -9.1,-32.5 -22.7,-41.1 12.5,8.8 20.7,23.3 20.7,39.8 0,26.9 -21.8,48.6 -48.6,48.6 -9.5,0 -18.4,-2.7 -25.9,-7.5 7.9,5.6 17.6,8.8 28,8.8 26.7,0.1 48.5,-21.7 48.5,-48.6 z"
   id="path294"
   inkscape:connector-curvature="0"
   style="fill:#ffffff" />
			</g>
			<path
   class="st15"
   d="m 348.1,192.7 c 9,0 17.4,2.1 24.9,5.9 -8.2,-4.8 -17.8,-7.6 -28,-7.6 -7.8,0 -15.2,1.6 -21.9,4.5 H 157.2 c -18.3,0 -33.1,14.8 -33.1,33.1 v 35.6 c 0,9.2 3.8,17.6 9.9,23.6 -3.5,-5.2 -5.5,-11.5 -5.5,-18.3 v -35.6 c 0,-18.3 14.8,-33.1 33.1,-33.1 h 152 c -14.5,10 -24,26.7 -24,45.6 0,21.6 12.4,40.3 30.5,49.5 -16.4,-9.6 -27.4,-27.4 -27.4,-47.8 0,-30.6 24.8,-55.4 55.4,-55.4 z"
   id="path298"
   inkscape:connector-curvature="0"
   style="opacity:0.15;fill:#ffffff;enable-background:new" />
			<g
   id="g308">
				<g
   class="st10"
   id="g302"
   style="opacity:0.25">
					<path
   d="m 185.2,297.3 h -24.7 l 0.5,3.8 h 6.8 c 6.6,0 12.5,4.3 14.4,10.7 0,0.1 0,0.1 0.1,0.2 0.8,-0.8 1.3,-1.9 1.5,-3.1 l 1,-7.8 v 0 -0.1 l 0.1,-0.7 v 0 z"
   id="path300"
   inkscape:connector-curvature="0" />
				</g>
				<g
   class="st10"
   id="g306"
   style="opacity:0.25">
					<path
   d="M 381.5,297.3 H 367 c -3.1,1.4 -6.4,2.4 -9.8,3.2 l 0.1,0.6 h 5.7 c 6.9,0 13,4.6 14.8,11.3 0,0.1 0,0.1 0.1,0.2 1.2,-0.9 2,-2.2 2.2,-3.7 l 1,-7.8 v 0 -0.1 l 0.1,-0.7 v 0 z"
   id="path304"
   inkscape:connector-curvature="0" />
				</g>
			</g>
			<g
   class="st16"
   id="g318"
   style="opacity:0.35">
				<g
   id="g312">
					<path
   class="st6"
   d="m 334.1,239.2 -18.4,-12.1 c 4.8,-7.2 12,-12.4 20.4,-14.7 l 5.6,21.3 c -3.1,0.9 -5.8,2.8 -7.6,5.5 z"
   id="path310"
   inkscape:connector-curvature="0"
   style="fill:#ffffff" />
				</g>
				<g
   id="g316">
					<path
   class="st6"
   d="m 310.2,251 c -0.2,-1.7 -0.3,-3.5 -0.2,-5.2 0.1,-1.8 0.2,-3.5 0.6,-5.2 l 21.7,4 c -0.1,0.6 -0.2,1.3 -0.2,2 0,0.7 0,1.3 0.1,2 z"
   id="path314"
   inkscape:connector-curvature="0"
   style="fill:#ffffff" />
				</g>
			</g>
			
				<linearGradient
   id="SVGID_5_"
   gradientUnits="userSpaceOnUse"
   x1="594.34418"
   y1="1580.5475"
   x2="29.961201"
   y2="1823.976"
   gradientTransform="matrix(1,0,0,-1,66.1,2037.3756)">
				<stop
   offset="0"
   style="stop-color:#000000"
   id="stop320" />
				<stop
   offset="7.140000e-02"
   style="stop-color:#060606"
   id="stop322" />
				<stop
   offset="0.168"
   style="stop-color:#171717"
   id="stop324" />
				<stop
   offset="0.2791"
   style="stop-color:#343434"
   id="stop326" />
				<stop
   offset="0.401"
   style="stop-color:#5B5B5B"
   id="stop328" />
				<stop
   offset="0.5318"
   style="stop-color:#8E8E8E"
   id="stop330" />
				<stop
   offset="0.6677"
   style="stop-color:#CBCBCB"
   id="stop332" />
				<stop
   offset="0.7715"
   style="stop-color:#FFFFFF"
   id="stop334" />
			</linearGradient>
			<path
   class="st17"
   d="m 417.3,226.9 c 0,-0.2 0,-0.3 0,-0.5 0,-0.4 -0.1,-0.8 -0.1,-1.2 0,-0.2 0,-0.4 -0.1,-0.6 0,-0.4 -0.1,-0.8 -0.1,-1.1 0,-0.2 -0.1,-0.4 -0.1,-0.5 -0.1,-0.4 -0.1,-0.8 -0.2,-1.1 0,-0.2 -0.1,-0.3 -0.1,-0.5 -0.1,-0.4 -0.2,-0.8 -0.3,-1.1 0,-0.1 -0.1,-0.3 -0.1,-0.4 -0.1,-0.4 -0.2,-0.8 -0.3,-1.2 0,-0.1 -0.1,-0.3 -0.1,-0.4 -0.1,-0.4 -0.3,-0.8 -0.4,-1.2 0,-0.1 -0.1,-0.2 -0.1,-0.3 -0.2,-0.4 -0.3,-0.8 -0.5,-1.2 0,-0.1 -0.1,-0.2 -0.1,-0.3 -0.2,-0.4 -0.4,-0.8 -0.6,-1.2 0,-0.1 -0.1,-0.1 -0.1,-0.2 -0.2,-0.4 -0.4,-0.8 -0.7,-1.3 0,-0.1 -0.1,-0.1 -0.1,-0.1 -0.2,-0.4 -0.5,-0.9 -0.8,-1.3 0,0 0,-0.1 -0.1,-0.1 -0.3,-0.4 -0.6,-0.9 -0.8,-1.3 0,0 0,0 0,-0.1 -0.3,-0.4 -0.6,-0.8 -0.9,-1.3 v 0 c -0.3,-0.4 -0.7,-0.8 -1,-1.2 v 0 c -0.4,-0.4 -0.7,-0.8 -1.1,-1.2 v 0 c -0.4,-0.4 -0.8,-0.8 -1.2,-1.2 -5.9,-5.7 -14,-9.2 -22.9,-9.2 h -16 -1.2 c -0.6,-0.3 -1.3,-0.5 -2,-0.8 h -0.1 c -0.5,-0.2 -1,-0.4 -1.5,-0.6 -0.1,0 -0.1,0 -0.2,-0.1 -1.1,-0.4 -2.2,-0.7 -3.3,-1 -0.1,0 -0.2,0 -0.3,-0.1 -0.5,-0.1 -0.9,-0.3 -1.4,-0.4 -0.1,0 -0.2,0 -0.3,-0.1 -1.1,-0.3 -2.2,-0.5 -3.3,-0.7 -0.1,0 -0.3,0 -0.4,-0.1 -0.4,-0.1 -0.9,-0.1 -1.3,-0.2 -0.1,0 -0.3,0 -0.4,-0.1 -1.1,-0.1 -2.2,-0.3 -3.4,-0.3 -0.2,0 -0.3,0 -0.5,0 -0.4,0 -0.8,0 -1.3,-0.1 -0.2,0 -0.3,0 -0.5,0 -0.6,0 -1.1,0 -1.7,0 v 0 c -0.1,0 -0.1,0 -0.2,0 -0.4,0 -0.8,0 -1.2,0 -0.2,0 -0.3,0 -0.5,0 -0.3,0 -0.6,0 -1,0 -0.2,0 -0.3,0 -0.4,0 -0.3,0 -0.7,0 -1,0.1 -0.1,0 -0.3,0 -0.4,0 -0.3,0 -0.7,0.1 -1,0.1 -0.1,0 -0.2,0 -0.4,0 -0.4,0 -0.7,0.1 -1.1,0.1 -0.1,0 -0.2,0 -0.3,0 -0.4,0 -0.7,0.1 -1.1,0.2 -0.1,0 -0.2,0 -0.3,0 -0.4,0.1 -0.8,0.1 -1.1,0.2 -0.1,0 -0.1,0 -0.2,0 -0.4,0.1 -0.8,0.2 -1.2,0.2 -0.1,0 -0.1,0 -0.2,0 -0.4,0.1 -0.8,0.2 -1.2,0.3 h -0.1 c -0.4,0.1 -0.8,0.2 -1.3,0.3 0,0 0,0 -0.1,0 -0.4,0.1 -0.9,0.2 -1.3,0.4 v 0 c -0.4,0.1 -0.9,0.3 -1.3,0.4 v 0 c -1.8,0.6 -3.5,1.2 -5.2,1.9 v 0 H 157.3 c -18.3,0 -33.1,14.8 -33.1,33.1 v 35.6 c 0,0.6 0,1.1 0,1.7 0,0.2 0,0.3 0,0.5 0,0.4 0.1,0.8 0.1,1.2 0,0.2 0,0.3 0.1,0.5 0,0.4 0.1,0.8 0.2,1.2 0,0.2 0.1,0.3 0.1,0.5 0.1,0.4 0.1,0.8 0.2,1.2 0,0.1 0.1,0.3 0.1,0.4 0.1,0.4 0.2,0.8 0.3,1.2 0,0.1 0.1,0.2 0.1,0.3 0.1,0.4 0.2,0.8 0.4,1.3 0,0.1 0.1,0.2 0.1,0.3 0.1,0.4 0.3,0.9 0.4,1.3 0,0.1 0.1,0.1 0.1,0.2 0.2,0.4 0.3,0.9 0.5,1.3 0,0 0,0.1 0.1,0.1 0.2,0.5 0.4,0.9 0.6,1.4 0,0 0,0 0,0.1 0.2,0.5 0.5,0.9 0.7,1.4 v 0 c 0.3,0.5 0.5,0.9 0.8,1.4 v 0 c 0.9,1.4 1.8,2.8 2.9,4 0.2,0.2 0.3,0.4 0.5,0.6 0.2,0.2 0.4,0.4 0.6,0.6 0.2,0.2 0.3,0.4 0.5,0.5 0.1,0.1 0.3,0.3 0.4,0.4 0.2,0.2 0.5,0.5 0.8,0.7 0.1,0.1 0.3,0.3 0.4,0.4 0.3,0.2 0.5,0.5 0.8,0.7 0.1,0.1 0.3,0.2 0.4,0.4 0.2,0.2 0.5,0.4 0.7,0.6 0.2,0.1 0.4,0.3 0.5,0.4 0.2,0.2 0.5,0.4 0.7,0.5 0.1,0.1 0.3,0.2 0.4,0.3 0.3,0.2 0.7,0.4 1,0.6 0.1,0.1 0.3,0.2 0.4,0.3 0.3,0.2 0.7,0.4 1,0.6 0.1,0.1 0.3,0.1 0.4,0.2 0.4,0.2 0.7,0.4 1.1,0.6 0.1,0 0.2,0.1 0.3,0.1 0.3,0.2 0.7,0.3 1,0.5 0.1,0 0.2,0.1 0.3,0.1 0.4,0.2 0.8,0.3 1.2,0.5 0.1,0 0.2,0.1 0.3,0.1 0.4,0.1 0.8,0.3 1.3,0.4 0.1,0 0.2,0.1 0.3,0.1 0.4,0.1 0.9,0.3 1.3,0.4 0.1,0 0.2,0 0.2,0.1 0.4,0.1 0.9,0.2 1.3,0.3 h 0.1 c 0.5,0.1 1,0.2 1.4,0.3 0.1,0 0.2,0 0.3,0 0.5,0.1 0.9,0.1 1.4,0.2 0.1,0 0.2,0 0.3,0 0.5,0 1,0.1 1.5,0.1 0.1,0 0.1,0 0.2,0 0.5,0 1,0 1.6,0 h 3.1 l 0.5,3.8 1,7.8 c 0.4,2.9 3.1,5.1 6.4,5.1 h 8.9 c 2,0 3.8,-0.8 4.9,-2 v 0 c 0.1,-0.1 0.2,-0.2 0.3,-0.3 v 0 c 0.3,-0.3 0.5,-0.6 0.7,-1 0,0 0,-0.1 0.1,-0.1 0,-0.1 0.1,-0.2 0.1,-0.2 0,-0.1 0.1,-0.1 0.1,-0.2 0,-0.1 0.1,-0.1 0.1,-0.2 0,-0.1 0.1,-0.2 0.1,-0.3 0,-0.1 0,-0.1 0,-0.2 0,-0.2 0.1,-0.3 0.1,-0.5 l 1,-7.8 v 0 -0.1 l 0.1,-0.7 0.4,-3 h 127.8 10.2 c 6.7,2.9 14.1,4.5 21.9,4.5 4.1,0 8.2,-0.5 12.1,-1.3 l 0.1,0.6 v 0 l 1,7.8 c 0.4,2.9 3.1,5.1 6.4,5.1 h 8.9 c 2.2,0 4.2,-1 5.4,-2.6 v 0 c 0.1,-0.1 0.2,-0.3 0.3,-0.4 v 0 c 0.1,-0.1 0.2,-0.3 0.2,-0.4 0,0 0,0 0,-0.1 0.1,-0.1 0.1,-0.3 0.2,-0.4 v -0.1 c 0,-0.1 0.1,-0.3 0.1,-0.4 v -0.1 c 0,-0.2 0.1,-0.4 0.1,-0.5 l 1,-7.8 v -0.1 l 0.1,-0.7 0.4,-3 h 2.8 c 18.3,0 33.1,-14.8 33.1,-33.1 v -35.6 c 0.4,-0.4 0.4,-1 0.4,-1.6 z"
   id="path337"
   inkscape:connector-curvature="0"
   style="opacity:0.15;fill:url(#SVGID_5_);enable-background:new" />
		</g>
		<g
   id="g379">
			<g
   id="g377">
				<g
   id="g375">
					<g
   id="g373">
						<defs
   id="defs342">
							<path
   id="SVGID_6_"
   d="M 283.5,67.1 C 164,67.1 67.1,164 67.1,283.5 c 0,26.3 4.7,51.5 13.3,74.8 30.5,82.7 109.9,141.6 203.1,141.6 93.2,0 172.7,-58.9 203.1,-141.6 8.6,-23.3 13.3,-48.5 13.3,-74.8 C 500,164 403.1,67.1 283.5,67.1 Z"
   inkscape:connector-curvature="0" />
						</defs>
						<clipPath
   id="SVGID_7_">
							<use
   xlink:href="#SVGID_6_"
   style="overflow:visible"
   id="use344"
   x="0"
   y="0"
   width="100%"
   height="100%" />
						</clipPath>
						<g
   class="st18"
   clip-path="url(#SVGID_7_)"
   id="g371">
							<path
   class="st19"
   d="m 226.5,336.6 c 5.5,-0.5 10.3,3.5 10.8,8.9 l 1.7,17.3 c 0.1,0.8 0.8,1.5 1.7,1.4 l 2,-0.2 c 0.8,-0.1 1.5,-0.8 1.4,-1.7 0,0 -7,-74.6 -7.2,-80.8 -0.3,-8.4 4.6,-11.8 11,-12.4 v 0 c 4.8,-0.5 8.8,2.9 9.9,7.6 2.1,9.4 5.1,42 5.1,42 0.1,0.8 0.8,1.5 1.7,1.4 l 1.5,-0.1 c 0.8,-0.1 1.5,-0.8 1.4,-1.7 l -0.7,-7.4 c -0.5,-5.4 3.4,-10.1 8.8,-10.6 5.4,-0.5 10.1,3.4 10.6,8.8 l 1.7,17.6 c 0.1,1.3 1.3,2.3 2.6,2.2 0.8,-0.1 1.5,-0.8 1.4,-1.7 l -1.3,-13.3 c -0.3,-3.1 2,-6 5.2,-6.3 l 2.3,-0.2 c 3.2,-0.3 5.9,2 6.3,5.2 l 1.4,14.3 c 0.1,0.8 0.8,1.5 1.7,1.4 l 0.8,-0.1 c 0.8,-0.1 1.5,-0.8 1.4,-1.7 l -0.9,-9.2 c -0.2,-2 1.3,-3.7 3.2,-3.9 5.1,-0.5 9.7,3.3 10.2,8.4 l 4.9,47.2 c 0,0.4 0.1,0.8 0.1,1.1 0.1,2.6 -0.6,5.2 -1.6,7.6 L 309,414.4 255.8,419.5 234.2,406 c -7.2,-4.5 -11.8,-12 -12.7,-20.5 l -3.7,-38 c -0.7,-5.5 3.3,-10.3 8.7,-10.9 z"
   id="path347"
   inkscape:connector-curvature="0"
   style="fill:#ffa38a" />
							<path
   class="st20"
   d="m 223,392.6 c 2.1,5.4 5.9,10.2 10.9,13.3 l 21.6,13.5 53.2,-5.1 13.8,-30.6 c -47.2,25.5 -83.8,15.7 -99.5,8.9 z"
   id="path349"
   inkscape:connector-curvature="0"
   style="fill:#eb876c" />
							<path
   class="st21"
   d="m 314.5,417.2 19.2,160.6 -76.1,7.3 -9.1,-161.7 c -0.2,-3 2.1,-5.6 5.1,-5.9 l 54.8,-5.3 c 3,-0.2 5.7,1.9 6.1,5 z"
   id="path351"
   inkscape:connector-curvature="0"
   style="fill:#4b444c" />
							<path
   class="st22"
   d="m 255.9,423 c 0.9,-0.1 1.7,0.6 1.8,1.5 l 0.9,9.4 c 0.1,0.9 -0.6,1.7 -1.5,1.8 -0.9,0.1 -1.7,-0.6 -1.8,-1.5 l -0.9,-9.4 c 0,-0.9 0.6,-1.7 1.5,-1.8 z"
   id="path353"
   inkscape:connector-curvature="0"
   style="fill:#373238" />
							<path
   class="st22"
   d="m 264.8,422.2 c 0.9,-0.1 1.7,0.6 1.8,1.5 l 0.9,9.4 c 0.1,0.9 -0.6,1.7 -1.5,1.8 -0.9,0.1 -1.7,-0.6 -1.8,-1.5 l -0.9,-9.4 c -0.1,-0.9 0.6,-1.7 1.5,-1.8 z"
   id="path355"
   inkscape:connector-curvature="0"
   style="fill:#373238" />
							<path
   class="st22"
   d="m 273.7,421.3 c 0.9,-0.1 1.7,0.6 1.8,1.5 l 0.9,9.4 c 0.1,0.9 -0.6,1.7 -1.5,1.8 -0.9,0.1 -1.7,-0.6 -1.8,-1.5 l -0.9,-9.4 c -0.1,-0.9 0.6,-1.7 1.5,-1.8 z"
   id="path357"
   inkscape:connector-curvature="0"
   style="fill:#373238" />
							<path
   class="st22"
   d="m 282.5,420.5 c 0.9,-0.1 1.7,0.6 1.8,1.5 l 0.9,9.4 c 0.1,0.9 -0.6,1.7 -1.5,1.8 -0.9,0.1 -1.7,-0.6 -1.8,-1.5 l -0.9,-9.4 c 0,-0.9 0.6,-1.8 1.5,-1.8 z"
   id="path359"
   inkscape:connector-curvature="0"
   style="fill:#373238" />
							<path
   class="st22"
   d="m 291.4,419.6 c 0.9,-0.1 1.7,0.6 1.8,1.5 l 0.9,9.4 c 0.1,0.9 -0.6,1.7 -1.5,1.8 -0.9,0.1 -1.7,-0.6 -1.8,-1.5 l -0.9,-9.4 c -0.1,-0.9 0.6,-1.7 1.5,-1.8 z"
   id="path361"
   inkscape:connector-curvature="0"
   style="fill:#373238" />
							<path
   class="st22"
   d="m 300.3,418.7 c 0.9,-0.1 1.7,0.6 1.8,1.5 l 0.9,9.4 c 0.1,0.9 -0.6,1.7 -1.5,1.8 -0.9,0.1 -1.7,-0.6 -1.8,-1.5 l -0.9,-9.4 c -0.1,-0.8 0.6,-1.7 1.5,-1.8 z"
   id="path363"
   inkscape:connector-curvature="0"
   style="fill:#373238" />
							<path
   class="st22"
   d="m 309.2,417.9 c 0.9,-0.1 1.7,0.6 1.8,1.5 l 0.9,9.4 c 0.1,0.9 -0.6,1.7 -1.5,1.8 -0.9,0.1 -1.7,-0.6 -1.8,-1.5 l -0.9,-9.4 c -0.1,-0.9 0.5,-1.7 1.5,-1.8 z"
   id="path365"
   inkscape:connector-curvature="0"
   style="fill:#373238" />
							<path
   class="st23"
   d="m 226.3,341.1 c 3.1,-0.3 5.9,2 6.2,5.1 l 0.3,3 c 0.3,3.1 -2,5.9 -5.1,6.2 -3.1,0.3 -5.9,-2 -6.2,-5.1 l -0.3,-3 c -0.3,-3.1 2,-5.9 5.1,-6.2 z"
   id="path367"
   inkscape:connector-curvature="0"
   style="fill:#ffe8e0" />
							<path
   class="st23"
   d="m 247.2,274 c 3.1,-0.3 5.9,2 6.2,5.1 l 0.3,3 c 0.3,3.1 -2,5.9 -5.1,6.2 -3.1,0.3 -5.9,-2 -6.2,-5.1 l -0.3,-3 c -0.3,-3.1 2,-5.9 5.1,-6.2 z"
   id="path369"
   inkscape:connector-curvature="0"
   style="fill:#ffe8e0" />
						</g>
					</g>
				</g>
			</g>
		</g>
		<path
   class="st24"
   d="m 131.7,198 c 6.4,4.4 14.2,7.1 22.6,7.1 21.9,0 39.7,-17.8 39.7,-39.7 0,-21.9 -17.8,-39.7 -39.7,-39.7 -1.6,0 -3.2,0.1 -4.7,0.3 0.2,-1.6 0.3,-3.1 0.3,-4.7 0,-2.5 -0.3,-4.9 -0.7,-7.3 -35.8,28.4 -62.4,67.9 -74.6,113.3 5.4,2.8 11.5,4.3 18,4.3 19.8,-0.1 36.2,-14.6 39.1,-33.6 z"
   id="path381"
   inkscape:connector-curvature="0"
   style="fill:#fcfcfc" />
		<path
   class="st24"
   d="m 486.7,358.3 c 0.4,-1.2 0.8,-2.4 1.3,-3.7 -7.2,-7.9 -17.6,-12.8 -29.2,-12.8 -19.8,0 -36.2,14.5 -39.2,33.5 -6.4,-4.4 -14.2,-7.1 -22.6,-7.1 -21.9,0 -39.7,17.8 -39.7,39.7 0,21.9 17.8,39.7 39.7,39.7 1.6,0 3.2,-0.1 4.7,-0.3 -0.2,1.6 -0.3,3.1 -0.3,4.7 0,4.1 0.6,8 1.8,11.7 37.9,-25.1 67.5,-62 83.5,-105.4 z"
   id="path383"
   inkscape:connector-curvature="0"
   style="fill:#fcfcfc" />
	</g>
</g>
</svg>